<svg width="14" height="14" viewBox="0 0 14 14" fill="none" xmlns="http://www.w3.org/2000/svg">
<path d="M1.75008 4.08334H12.2501C12.4048 4.08334 12.5532 4.02188 12.6626 3.91248C12.772 3.80309 12.8334 3.65471 12.8334 3.50001C12.8334 3.3453 12.772 3.19692 12.6626 3.08753C12.5532 2.97813 12.4048 2.91667 12.2501 2.91667H1.75008C1.59537 2.91667 1.447 2.97813 1.3376 3.08753C1.22821 3.19692 1.16675 3.3453 1.16675 3.50001C1.16675 3.65471 1.22821 3.80309 1.3376 3.91248C1.447 4.02188 1.59537 4.08334 1.75008 4.08334ZM1.75008 6.41667H9.91675C10.0715 6.41667 10.2198 6.35521 10.3292 6.24582C10.4386 6.13642 10.5001 5.98805 10.5001 5.83334C10.5001 5.67863 10.4386 5.53026 10.3292 5.42086C10.2198 5.31146 10.0715 5.25001 9.91675 5.25001H1.75008C1.59537 5.25001 1.447 5.31146 1.3376 5.42086C1.22821 5.53026 1.16675 5.67863 1.16675 5.83334C1.16675 5.98805 1.22821 6.13642 1.3376 6.24582C1.447 6.35521 1.59537 6.41667 1.75008 6.41667ZM12.2501 7.58334H1.75008C1.59537 7.58334 1.447 7.6448 1.3376 7.75419C1.22821 7.86359 1.16675 8.01196 1.16675 8.16667C1.16675 8.32138 1.22821 8.46975 1.3376 8.57915C1.447 8.68855 1.59537 8.75001 1.75008 8.75001H12.2501C12.4048 8.75001 12.5532 8.68855 12.6626 8.57915C12.772 8.46975 12.8334 8.32138 12.8334 8.16667C12.8334 8.01196 12.772 7.86359 12.6626 7.75419C12.5532 7.6448 12.4048 7.58334 12.2501 7.58334ZM9.91675 9.91667H1.75008C1.59537 9.91667 1.447 9.97813 1.3376 10.0875C1.22821 10.1969 1.16675 10.3453 1.16675 10.5C1.16675 10.6547 1.22821 10.8031 1.3376 10.9125C1.447 11.0219 1.59537 11.0833 1.75008 11.0833H9.91675C10.0715 11.0833 10.2198 11.0219 10.3292 10.9125C10.4386 10.8031 10.5001 10.6547 10.5001 10.5C10.5001 10.3453 10.4386 10.1969 10.3292 10.0875C10.2198 9.97813 10.0715 9.91667 9.91675 9.91667Z" fill="#1B1B1B"/>
</svg>
