<svg width="16" height="16" viewBox="0 0 16 16" fill="none" xmlns="http://www.w3.org/2000/svg">
<path d="M1.99992 9.99992H8.66659C8.8434 9.99992 9.01297 9.92968 9.13799 9.80466C9.26301 9.67963 9.33325 9.51006 9.33325 9.33325C9.33325 9.15644 9.26301 8.98687 9.13799 8.86185C9.01297 8.73682 8.8434 8.66659 8.66659 8.66659H1.99992C1.82311 8.66659 1.65354 8.73682 1.52851 8.86185C1.40349 8.98687 1.33325 9.15644 1.33325 9.33325C1.33325 9.51006 1.40349 9.67963 1.52851 9.80466C1.65354 9.92968 1.82311 9.99992 1.99992 9.99992ZM1.99992 7.33325H8.66659C8.8434 7.33325 9.01297 7.26301 9.13799 7.13799C9.26301 7.01297 9.33325 6.8434 9.33325 6.66659C9.33325 6.48977 9.26301 6.32021 9.13799 6.19518C9.01297 6.07016 8.8434 5.99992 8.66659 5.99992H1.99992C1.82311 5.99992 1.65354 6.07016 1.52851 6.19518C1.40349 6.32021 1.33325 6.48977 1.33325 6.66659C1.33325 6.8434 1.40349 7.01297 1.52851 7.13799C1.65354 7.26301 1.82311 7.33325 1.99992 7.33325ZM1.99992 4.66659H13.9999C14.1767 4.66659 14.3463 4.59635 14.4713 4.47132C14.5963 4.3463 14.6666 4.17673 14.6666 3.99992C14.6666 3.82311 14.5963 3.65354 14.4713 3.52851C14.3463 3.40349 14.1767 3.33325 13.9999 3.33325H1.99992C1.82311 3.33325 1.65354 3.40349 1.52851 3.52851C1.40349 3.65354 1.33325 3.82311 1.33325 3.99992C1.33325 4.17673 1.40349 4.3463 1.52851 4.47132C1.65354 4.59635 1.82311 4.66659 1.99992 4.66659ZM13.9999 11.3333H1.99992C1.82311 11.3333 1.65354 11.4035 1.52851 11.5285C1.40349 11.6535 1.33325 11.8231 1.33325 11.9999C1.33325 12.1767 1.40349 12.3463 1.52851 12.4713C1.65354 12.5963 1.82311 12.6666 1.99992 12.6666H13.9999C14.1767 12.6666 14.3463 12.5963 14.4713 12.4713C14.5963 12.3463 14.6666 12.1767 14.6666 11.9999C14.6666 11.8231 14.5963 11.6535 14.4713 11.5285C14.3463 11.4035 14.1767 11.3333 13.9999 11.3333ZM13.0933 6.37992C13.0274 6.31625 12.9492 6.26683 12.8634 6.23474C12.7776 6.20265 12.6861 6.18858 12.5947 6.19341C12.5032 6.19823 12.4137 6.22185 12.3318 6.2628C12.2499 6.30374 12.1772 6.36112 12.1185 6.43137C12.0597 6.50162 12.016 6.58322 11.9902 6.67109C11.9644 6.75896 11.9569 6.85121 11.9683 6.94209C11.9797 7.03296 12.0097 7.12052 12.0564 7.19929C12.1032 7.27806 12.1656 7.34636 12.2399 7.39992L12.9599 7.99992L12.2399 8.59992C12.1724 8.65588 12.1166 8.72462 12.0757 8.80218C12.0348 8.87975 12.0096 8.96462 12.0016 9.05194C11.9935 9.13926 12.0028 9.2273 12.0288 9.31104C12.0548 9.39478 12.0971 9.47255 12.1533 9.53992C12.2159 9.61517 12.2944 9.67569 12.3832 9.71717C12.4719 9.75866 12.5686 9.78008 12.6666 9.77992C12.8232 9.77836 12.9742 9.72171 13.0933 9.61992L14.4266 8.51325C14.5021 8.4507 14.5628 8.37226 14.6046 8.28353C14.6463 8.1948 14.6679 8.09796 14.6679 7.99992C14.6679 7.90188 14.6463 7.80504 14.6046 7.71631C14.5628 7.62758 14.5021 7.54914 14.4266 7.48659L13.0933 6.37992Z" fill="#F9851F"/>
</svg>
