<svg width="14" height="14" viewBox="0 0 14 14" fill="none" xmlns="http://www.w3.org/2000/svg">
<path d="M13.3957 8.06342C13.3933 8.02898 13.3878 7.99482 13.3794 7.96134L12.0348 4.38142C12.2793 4.22304 12.4804 4.00612 12.6199 3.75033C12.7593 3.49455 12.8327 3.208 12.8334 2.91667C12.8334 2.76196 12.7719 2.61359 12.6625 2.50419C12.5531 2.3948 12.4047 2.33334 12.25 2.33334C12.0953 2.33334 11.947 2.3948 11.8376 2.50419C11.7282 2.61359 11.6667 2.76196 11.6667 2.91667C11.6669 3.04681 11.6236 3.1733 11.5437 3.27599C11.4638 3.37869 11.3518 3.45171 11.2256 3.48343C11.0993 3.51516 10.9661 3.50376 10.8471 3.45106C10.7282 3.39835 10.6302 3.30737 10.5689 3.19259C10.4194 2.92672 10.2006 2.70639 9.93574 2.55507C9.67091 2.40376 9.36999 2.32712 9.06504 2.33334H7.58337V1.75001C7.58337 1.5953 7.52192 1.44692 7.41252 1.33753C7.30312 1.22813 7.15475 1.16667 7.00004 1.16667C6.84533 1.16667 6.69696 1.22813 6.58756 1.33753C6.47817 1.44692 6.41671 1.5953 6.41671 1.75001V2.33334H4.93504C4.63009 2.32712 4.32917 2.40376 4.06434 2.55507C3.79951 2.70639 3.58069 2.92672 3.43121 3.19259C3.36988 3.30737 3.27193 3.39835 3.15293 3.45106C3.03394 3.50376 2.90074 3.51516 2.77452 3.48343C2.6483 3.45171 2.53632 3.37869 2.45638 3.27599C2.37644 3.1733 2.33315 3.04681 2.33337 2.91667C2.33337 2.76196 2.27192 2.61359 2.16252 2.50419C2.05312 2.3948 1.90475 2.33334 1.75004 2.33334C1.59533 2.33334 1.44696 2.3948 1.33756 2.50419C1.22817 2.61359 1.16671 2.76196 1.16671 2.91667C1.16738 3.208 1.24077 3.49455 1.38022 3.75033C1.51967 4.00612 1.72078 4.22304 1.96529 4.38142L0.620707 7.96134C0.612252 7.99482 0.606787 8.02898 0.604374 8.06342C0.594274 8.09713 0.587245 8.13169 0.583374 8.16667L0.585124 8.18242L0.587457 8.20517C0.601082 8.8139 0.852467 9.39311 1.2878 9.81881C1.72314 10.2445 2.30783 10.4829 2.91671 10.4829C3.52559 10.4829 4.11028 10.2445 4.54561 9.81881C4.98095 9.39311 5.23233 8.8139 5.24596 8.20517L5.24829 8.18242L5.25004 8.16667C5.24617 8.13169 5.23914 8.09713 5.22904 8.06342C5.22663 8.02898 5.22116 7.99482 5.21271 7.96134L3.86696 4.37734C4.11398 4.21944 4.31737 4.002 4.45846 3.74501C4.50946 3.66599 4.58034 3.60176 4.66398 3.55876C4.74762 3.51577 4.8411 3.4955 4.93504 3.50001H6.41671V11.6667H4.66671C4.512 11.6667 4.36362 11.7281 4.25423 11.8375C4.14483 11.9469 4.08337 12.0953 4.08337 12.25C4.08337 12.4047 4.14483 12.5531 4.25423 12.6625C4.36362 12.7719 4.512 12.8333 4.66671 12.8333H9.33337C9.48808 12.8333 9.63646 12.7719 9.74585 12.6625C9.85525 12.5531 9.91671 12.4047 9.91671 12.25C9.91671 12.0953 9.85525 11.9469 9.74585 11.8375C9.63646 11.7281 9.48808 11.6667 9.33337 11.6667H7.58337V3.50001H9.06504C9.15898 3.4955 9.25246 3.51577 9.3361 3.55876C9.41974 3.60176 9.49062 3.66599 9.54162 3.74501C9.68271 4.002 9.8861 4.21944 10.1331 4.37734L8.78737 7.96134C8.77892 7.99482 8.77345 8.02898 8.77104 8.06342C8.76094 8.09713 8.75391 8.13169 8.75004 8.16667L8.75179 8.18242L8.75412 8.20517C8.76775 8.8139 9.01913 9.39311 9.45447 9.81881C9.8898 10.2445 10.4745 10.4829 11.0834 10.4829C11.6923 10.4829 12.2769 10.2445 12.7123 9.81881C13.1476 9.39311 13.399 8.8139 13.4126 8.20517L13.415 8.18242C13.4161 8.17698 13.4167 8.17173 13.4167 8.16667C13.4128 8.13169 13.4058 8.09713 13.3957 8.06342ZM2.91671 5.166L3.82437 7.58334H2.00904L2.91671 5.166ZM3.92179 8.75C3.81896 8.92581 3.67231 9.07196 3.49616 9.17419C3.32001 9.27643 3.12037 9.33126 2.91671 9.33334C2.71202 9.33323 2.51096 9.27927 2.33372 9.17688C2.15648 9.07449 2.0093 8.92727 1.90696 8.75H3.92179ZM11.0834 5.166L11.991 7.58334H10.1757L11.0834 5.166ZM11.0834 9.33334C10.8787 9.33323 10.6776 9.27927 10.5004 9.17688C10.3231 9.07449 10.176 8.92727 10.0736 8.75H12.0885C11.9856 8.92581 11.839 9.07196 11.6628 9.17419C11.4867 9.27643 11.287 9.33126 11.0834 9.33334Z" fill="#F9851F"/>
</svg>
