<svg width="14" height="14" viewBox="0 0 14 14" fill="none" xmlns="http://www.w3.org/2000/svg">
<path d="M8.61583 3.42417C8.74978 3.50022 8.90836 3.52021 9.05699 3.47977C9.20561 3.43934 9.33221 3.34176 9.40917 3.20833C9.47284 3.09596 9.57202 3.0079 9.69114 2.95795C9.81026 2.90801 9.94258 2.89902 10.0674 2.93238C10.1921 2.96575 10.3023 3.03958 10.3806 3.14231C10.4589 3.24503 10.5009 3.37084 10.5 3.5C10.5 3.65471 10.4385 3.80308 10.3291 3.91248C10.2197 4.02187 10.0714 4.08333 9.91667 4.08333C9.76196 4.08333 9.61358 4.14479 9.50419 4.25419C9.39479 4.36358 9.33333 4.51196 9.33333 4.66667C9.33333 4.82138 9.39479 4.96975 9.50419 5.07915C9.61358 5.18854 9.76196 5.25 9.91667 5.25C10.2238 5.2498 10.5255 5.16877 10.7914 5.01505C11.0573 4.86133 11.2781 4.64034 11.4315 4.37427C11.585 4.1082 11.6657 3.80644 11.6655 3.4993C11.6654 3.19216 11.5845 2.89046 11.4308 2.62451C11.2772 2.35857 11.0562 2.13775 10.7902 1.98425C10.5242 1.83074 10.2224 1.74995 9.91526 1.75C9.60812 1.75005 9.3064 1.83093 9.04042 1.98453C8.77444 2.13812 8.55357 2.35901 8.4 2.625C8.36143 2.69158 8.33641 2.76513 8.32639 2.84142C8.31637 2.9177 8.32153 2.99522 8.3416 3.0695C8.36166 3.14378 8.39622 3.21336 8.44328 3.27423C8.49035 3.3351 8.54899 3.38606 8.61583 3.42417ZM11.1242 7.58333C10.971 7.56346 10.8163 7.60511 10.6938 7.69914C10.5714 7.79318 10.4912 7.93194 10.4708 8.085C10.3484 9.07384 9.86867 9.9838 9.12195 10.6435C8.37522 11.3032 7.41306 11.6671 6.41667 11.6667H3.15583L3.535 11.2875C3.64365 11.1782 3.70463 11.0304 3.70463 10.8762C3.70463 10.7221 3.64365 10.5743 3.535 10.465C2.96622 9.89398 2.57914 9.16742 2.42252 8.37682C2.2659 7.58623 2.34674 6.76697 2.65487 6.02223C2.96299 5.2775 3.48461 4.6406 4.15403 4.19177C4.82344 3.74293 5.61071 3.50224 6.41667 3.5C6.57138 3.5 6.71975 3.43854 6.82914 3.32915C6.93854 3.21975 7 3.07138 7 2.91667C7 2.76196 6.93854 2.61358 6.82914 2.50419C6.71975 2.39479 6.57138 2.33333 6.41667 2.33333C5.43039 2.33745 4.46521 2.6193 3.63171 3.14661C2.79822 3.67392 2.13012 4.42535 1.70395 5.31482C1.27779 6.20429 1.1108 7.19581 1.22211 8.1758C1.33342 9.15579 1.71854 10.0846 2.33333 10.8558L1.33583 11.8358C1.25489 11.9179 1.20006 12.022 1.17826 12.1352C1.15646 12.2484 1.16866 12.3654 1.21333 12.4717C1.2571 12.5782 1.33141 12.6694 1.42691 12.7337C1.52242 12.7981 1.63484 12.8328 1.75 12.8333H6.41667C7.69501 12.8335 8.9295 12.3673 9.88856 11.522C10.8476 10.6768 11.4653 9.51073 11.6258 8.2425C11.6365 8.16623 11.632 8.08861 11.6125 8.0141C11.593 7.9396 11.559 7.86969 11.5123 7.80841C11.4657 7.74713 11.4074 7.69569 11.3407 7.65706C11.2741 7.61843 11.2005 7.59337 11.1242 7.58333ZM10.1383 5.87417C10.0321 5.82718 9.91433 5.81296 9.8 5.83333L9.695 5.86833L9.59 5.92083L9.5025 5.99667C9.45003 6.05042 9.40843 6.1138 9.38 6.18333C9.34551 6.25609 9.32948 6.33624 9.33333 6.41667C9.33163 6.49446 9.34552 6.57182 9.37417 6.64417C9.40434 6.71418 9.44794 6.77759 9.5025 6.83083C9.55701 6.8849 9.62165 6.92767 9.69272 6.9567C9.76379 6.98573 9.8399 7.00044 9.91667 7C10.0714 7 10.2197 6.93854 10.3291 6.82914C10.4385 6.71975 10.5 6.57138 10.5 6.41667C10.502 6.34015 10.486 6.26423 10.4533 6.195C10.3907 6.05483 10.2785 5.94268 10.1383 5.88V5.87417Z" fill="#F9851F"/>
</svg>
