<svg width="18" height="18" viewBox="0 0 18 18" fill="none" xmlns="http://www.w3.org/2000/svg">
<path d="M6.87752 5.25001C6.73783 5.39053 6.65942 5.58062 6.65942 5.77876C6.65942 5.9769 6.73783 6.16699 6.87752 6.30751L9.53252 9.00001L6.87752 11.655C6.73783 11.7955 6.65942 11.9856 6.65942 12.1838C6.65942 12.3819 6.73783 12.572 6.87752 12.7125C6.94724 12.7828 7.03019 12.8386 7.12159 12.8767C7.21298 12.9148 7.31101 12.9344 7.41002 12.9344C7.50903 12.9344 7.60706 12.9148 7.69845 12.8767C7.78985 12.8386 7.8728 12.7828 7.94252 12.7125L11.1225 9.53251C11.1928 9.46279 11.2486 9.37984 11.2867 9.28844C11.3248 9.19705 11.3444 9.09902 11.3444 9.00001C11.3444 8.901 11.3248 8.80297 11.2867 8.71158C11.2486 8.62018 11.1928 8.53723 11.1225 8.46751L7.94252 5.25001C7.8728 5.17971 7.78985 5.12392 7.69845 5.08584C7.60706 5.04776 7.50903 5.02816 7.41002 5.02816C7.31101 5.02816 7.21298 5.04776 7.12159 5.08584C7.03019 5.12392 6.94724 5.17971 6.87752 5.25001Z" fill="white"/>
</svg>
