<svg width="18" height="18" viewBox="0 0 18 18" fill="none" xmlns="http://www.w3.org/2000/svg">
<path d="M11.1225 12.75C11.2622 12.6095 11.3406 12.4194 11.3406 12.2212C11.3406 12.0231 11.2622 11.833 11.1225 11.6925L8.46748 8.99999L11.1225 6.34499C11.2622 6.20447 11.3406 6.01438 11.3406 5.81624C11.3406 5.6181 11.2622 5.42801 11.1225 5.28749C11.0528 5.2172 10.9698 5.1614 10.8784 5.12332C10.787 5.08525 10.689 5.06564 10.59 5.06564C10.491 5.06564 10.3929 5.08525 10.3015 5.12332C10.2102 5.1614 10.1272 5.2172 10.0575 5.28749L6.87748 8.46749C6.80719 8.53721 6.75139 8.62016 6.71331 8.71156C6.67524 8.80295 6.65563 8.90098 6.65563 8.99999C6.65563 9.099 6.67524 9.19703 6.71331 9.28842C6.75139 9.37982 6.80719 9.46277 6.87748 9.53249L10.0575 12.75C10.1272 12.8203 10.2102 12.8761 10.3015 12.9142C10.3929 12.9522 10.491 12.9718 10.59 12.9718C10.689 12.9718 10.787 12.9522 10.8784 12.9142C10.9698 12.8761 11.0528 12.8203 11.1225 12.75Z" fill="white"/>
</svg>
