<svg width="12" height="12" viewBox="0 0 12 12" fill="none" xmlns="http://www.w3.org/2000/svg">
<path d="M11.6642 10.8358L9.50007 8.68917C10.3401 7.64174 10.7469 6.31226 10.6369 4.9741C10.5268 3.63593 9.90821 2.39079 8.90829 1.49471C7.90836 0.598634 6.60312 0.119719 5.26094 0.156446C3.91876 0.193173 2.64165 0.74275 1.69223 1.69217C0.742811 2.64159 0.193234 3.91869 0.156507 5.26088C0.119781 6.60306 0.598695 7.9083 1.49478 8.90823C2.39086 9.90815 3.63599 10.5267 4.97416 10.6368C6.31232 10.7469 7.64181 10.3401 8.68923 9.5L10.8359 11.6467C10.8901 11.7013 10.9546 11.7447 11.0257 11.7744C11.0968 11.804 11.1731 11.8192 11.2501 11.8192C11.3271 11.8192 11.4033 11.804 11.4744 11.7744C11.5455 11.7447 11.61 11.7013 11.6642 11.6467C11.7694 11.5379 11.8281 11.3925 11.8281 11.2413C11.8281 11.09 11.7694 10.9446 11.6642 10.8358ZM5.41673 9.5C4.60913 9.5 3.81966 9.26052 3.14815 8.81184C2.47665 8.36316 1.95328 7.72543 1.64422 6.9793C1.33517 6.23316 1.2543 5.41214 1.41186 4.62005C1.56942 3.82796 1.95832 3.10038 2.52938 2.52932C3.10044 1.95825 3.82803 1.56935 4.62011 1.4118C5.4122 1.25424 6.23323 1.33511 6.97936 1.64416C7.72549 1.95322 8.36322 2.47659 8.8119 3.14809C9.26058 3.81959 9.50007 4.60907 9.50007 5.41667C9.50007 6.49964 9.06986 7.53825 8.30409 8.30402C7.53831 9.0698 6.4997 9.5 5.41673 9.5Z" fill="#898989"/>
</svg>
