<svg width="14" height="14" viewBox="0 0 14 14" fill="none" xmlns="http://www.w3.org/2000/svg">
<path d="M4.95829 11.0833C4.78523 11.0833 4.61606 11.1347 4.47217 11.2308C4.32828 11.3269 4.21612 11.4636 4.1499 11.6235C4.08367 11.7834 4.06634 11.9593 4.10011 12.129C4.13387 12.2988 4.2172 12.4547 4.33957 12.5771C4.46194 12.6994 4.61785 12.7828 4.78759 12.8165C4.95732 12.8503 5.13326 12.833 5.29314 12.7667C5.45303 12.7005 5.58968 12.5883 5.68583 12.4445C5.78197 12.3006 5.83329 12.1314 5.83329 11.9583C5.83329 11.7263 5.74111 11.5037 5.57701 11.3396C5.41292 11.1755 5.19036 11.0833 4.95829 11.0833ZM11.0833 9.33333H4.08329C3.92858 9.33333 3.78021 9.27187 3.67081 9.16248C3.56142 9.05308 3.49996 8.90471 3.49996 8.75C3.49996 8.59529 3.56142 8.44692 3.67081 8.33752C3.78021 8.22812 3.92858 8.16667 4.08329 8.16667H9.03638C9.41649 8.16576 9.78604 8.04153 10.0895 7.81264C10.393 7.58375 10.614 7.26256 10.7193 6.89733L11.6439 3.65983C11.6686 3.57307 11.6729 3.48176 11.6563 3.39307C11.6398 3.30438 11.6029 3.22074 11.5486 3.14871C11.4942 3.07669 11.4239 3.01825 11.3432 2.97799C11.2625 2.93772 11.1735 2.91673 11.0833 2.91667H3.93163C3.81055 2.57673 3.58767 2.28236 3.29333 2.07361C2.99899 1.86485 2.64747 1.75186 2.28663 1.75H1.74996C1.59525 1.75 1.44688 1.81146 1.33748 1.92085C1.22808 2.03025 1.16663 2.17862 1.16663 2.33333C1.16663 2.48804 1.22808 2.63642 1.33748 2.74581C1.44688 2.85521 1.59525 2.91667 1.74996 2.91667H2.28721C2.41388 2.91707 2.53702 2.95849 2.63818 3.03473C2.73934 3.11097 2.81308 3.21793 2.84838 3.33958L2.93879 3.6575V3.66042L3.89604 7.00992C3.45047 7.05755 3.04015 7.2743 2.74965 7.61548C2.45914 7.95667 2.31058 8.39629 2.33459 8.84376C2.3586 9.29122 2.55334 9.71243 2.87868 10.0206C3.20403 10.3287 3.63518 10.5003 4.08329 10.5H11.0833C11.238 10.5 11.3864 10.4385 11.4958 10.3291C11.6052 10.2197 11.6666 10.0714 11.6666 9.91667C11.6666 9.76196 11.6052 9.61358 11.4958 9.50419C11.3864 9.39479 11.238 9.33333 11.0833 9.33333ZM10.3098 4.08333L9.59813 6.5765C9.56291 6.69836 9.48912 6.80551 9.38783 6.88188C9.28655 6.95824 9.16322 6.99968 9.03638 7H5.10646L4.95771 6.47967L4.27346 4.08333H10.3098ZM9.62496 11.0833C9.4519 11.0833 9.28273 11.1347 9.13884 11.2308C8.99494 11.3269 8.88279 11.4636 8.81656 11.6235C8.75034 11.7834 8.73301 11.9593 8.76677 12.129C8.80053 12.2988 8.88387 12.4547 9.00624 12.5771C9.12861 12.6994 9.28452 12.7828 9.45426 12.8165C9.62399 12.8503 9.79992 12.833 9.95981 12.7667C10.1197 12.7005 10.2563 12.5883 10.3525 12.4445C10.4486 12.3006 10.5 12.1314 10.5 11.9583C10.5 11.7263 10.4078 11.5037 10.2437 11.3396C10.0796 11.1755 9.85702 11.0833 9.62496 11.0833Z" fill="#F9851F"/>
</svg>
