<svg width="14" height="14" viewBox="0 0 14 14" fill="none" xmlns="http://www.w3.org/2000/svg">
<path d="M6.99654 1.1665C5.84282 1.1665 4.715 1.50862 3.75572 2.1496C2.79643 2.79057 2.04876 3.70161 1.60725 4.76752C1.16574 5.83342 1.05022 7.00631 1.2753 8.13786C1.50038 9.26942 2.05595 10.3088 2.87175 11.1246C3.68756 11.9404 4.72696 12.496 5.85852 12.7211C6.99007 12.9462 8.16296 12.8306 9.22886 12.3891C10.2948 11.9476 11.2058 11.2 11.8468 10.2407C12.4878 9.28138 12.8299 8.15356 12.8299 6.99984C12.8299 6.23379 12.679 5.47525 12.3858 4.76752C12.0927 4.05978 11.663 3.41672 11.1213 2.87505C10.5797 2.33337 9.9366 1.90369 9.22886 1.61054C8.52113 1.31739 7.76259 1.1665 6.99654 1.1665ZM8.85154 10.0052C8.82977 10.0597 8.79659 10.1089 8.75423 10.1495C8.71187 10.1901 8.66131 10.2212 8.60594 10.2406C8.55057 10.2601 8.49168 10.2674 8.43323 10.2623C8.37478 10.2571 8.31811 10.2394 8.26704 10.2105L8.23022 10.1819L6.68329 8.97967L5.66713 9.91767C5.64354 9.93509 5.61596 9.9463 5.58691 9.95027C5.55786 9.95425 5.52828 9.95086 5.50088 9.94042L5.69571 8.19684L5.70154 8.20209L5.70563 8.16767C5.70563 8.16767 5.85619 8.03053 6.08954 7.818C6.23554 7.68503 6.41396 7.52256 6.60815 7.34565C7.45371 6.57533 8.59859 5.5318 8.67129 5.46275C8.78913 5.3525 8.75004 5.32859 8.75004 5.32859C8.75704 5.19442 8.53946 5.32859 8.53946 5.32859L6.18741 6.84163L5.57672 7.23448L4.76354 7.75759L3.70648 7.39752L3.19146 7.22209C3.19146 7.22209 2.94996 7.13575 2.92721 6.945C2.90329 6.756 3.19904 6.65334 3.19904 6.65334L3.70623 6.45182L5.02245 5.92887L6.19825 5.46171L9.39396 4.19202L9.45063 4.1695C9.45063 4.1695 9.96454 3.94084 9.96454 4.32L9.88862 4.70781L9.22894 8.07747L9.16281 8.41525L8.87334 9.89385L8.85154 10.0052Z" fill="#F9851F"/>
<path fill-rule="evenodd" clip-rule="evenodd" d="M6.19825 5.46171L5.02245 5.92887C5.02494 5.78045 5.05573 5.63372 5.11331 5.49661C5.17662 5.34588 5.27091 5.21013 5.39005 5.09817C5.42515 5.05838 5.4682 5.0264 5.51644 5.00429C5.56467 4.98219 5.617 4.97045 5.67005 4.96984H5.83339C5.89755 4.96984 5.98505 4.96984 6.06672 5.15067C6.09734 5.21847 6.14682 5.33712 6.19825 5.46171Z" fill="#F9851F"/>
<path fill-rule="evenodd" clip-rule="evenodd" d="M12.7751 3.06817C12.807 3.31788 12.8264 3.56902 12.8334 3.82067V10.1848C12.828 10.4348 12.8066 10.6842 12.7692 10.9315C12.7275 11.1499 12.6568 11.3617 12.5592 11.5615C12.4528 11.7766 12.313 11.9735 12.1451 12.1448C11.975 12.3144 11.7779 12.4544 11.5617 12.559C11.3622 12.6586 11.1504 12.7312 10.9317 12.7748C10.682 12.8068 10.4309 12.8262 10.1792 12.8332H3.81505C3.56505 12.8278 3.31564 12.8064 3.06839 12.769C2.85001 12.7272 2.63815 12.6566 2.43839 12.559C2.22332 12.4526 2.02644 12.3128 1.85505 12.1448C1.68551 11.9748 1.54553 11.7776 1.44089 11.5615C1.34126 11.362 1.26868 11.1502 1.22505 10.9315C1.19313 10.6818 1.17366 10.4307 1.16672 10.179V3.81484C1.17208 3.56483 1.19352 3.31543 1.23089 3.06817C1.27266 2.84979 1.34328 2.63794 1.44089 2.43817C1.54731 2.2231 1.6871 2.02622 1.85505 1.85484C2.02511 1.68529 2.22226 1.54531 2.43839 1.44067C2.63786 1.34105 2.84973 1.26846 3.06839 1.22484C3.3181 1.19291 3.56924 1.17345 3.82089 1.1665H10.1851C10.4351 1.17187 10.6845 1.1933 10.9317 1.23067C11.1501 1.27244 11.362 1.34306 11.5617 1.44067C11.7768 1.5471 11.9737 1.68688 12.1451 1.85484C12.3146 2.02489 12.4546 2.22204 12.5592 2.43817C12.6588 2.63764 12.7314 2.84951 12.7751 3.06817ZM5.13339 10.5582C5.74519 10.8996 6.43361 11.0802 7.13422 11.0832C7.96083 11.0774 8.76725 10.8272 9.45192 10.364C10.1366 9.90079 10.6689 9.24535 10.9818 8.48023C11.2946 7.7151 11.3741 6.87449 11.2102 6.06428C11.0462 5.25407 10.6462 4.51049 10.0605 3.92719C9.47474 3.34389 8.72951 2.94696 7.91862 2.78638C7.10774 2.62581 6.26747 2.70878 5.50365 3.02484C4.73982 3.3409 4.08661 3.87591 3.62626 4.5625C3.16592 5.24909 2.91904 6.05654 2.91672 6.88317C2.92227 7.61873 3.12361 8.33955 3.50005 8.9715L2.91672 11.1415L5.13339 10.5582ZM5.3793 3.9191C5.91025 3.60191 6.51578 3.43108 7.13422 3.424L7.12839 3.35984C7.96136 3.35984 8.76372 3.65677 9.39396 4.19202L6.19825 5.46171C6.14682 5.33712 6.09734 5.21847 6.06672 5.15067C5.98505 4.96984 5.89755 4.96984 5.83339 4.96984H5.67005C5.617 4.97045 5.56467 4.98219 5.51644 5.00429C5.4682 5.0264 5.42515 5.05838 5.39005 5.09817C5.27091 5.21013 5.17662 5.34588 5.11331 5.49661C5.05573 5.63372 5.02494 5.78045 5.02245 5.92887L3.70623 6.45182C3.7644 6.02446 3.90128 5.6099 4.11156 5.22972C4.41092 4.68851 4.84834 4.23629 5.3793 3.9191ZM9.22894 8.07747L9.88862 4.70781C10.3655 5.31947 10.6284 6.0761 10.6284 6.85984C10.6284 7.78809 10.2596 8.67833 9.60326 9.33471C9.38368 9.55429 9.13793 9.74168 8.87334 9.89385L9.16281 8.41525C9.16725 8.40823 9.17161 8.40114 9.17589 8.394V8.3765C9.21032 8.28015 9.22813 8.17905 9.22894 8.07747ZM6.08954 7.818C5.90316 7.63856 5.73155 7.44345 5.57672 7.23448L4.76354 7.75759L3.70648 7.39752C3.77175 7.87533 3.93529 8.33599 4.18839 8.74984L4.27005 8.884L3.92005 10.1615L5.25005 9.79984L5.37839 9.87567C5.90897 10.1882 6.51262 10.3552 7.12839 10.3598C7.50638 10.3598 7.87806 10.2987 8.23022 10.1819L6.68329 8.97967L5.66713 9.91767C5.64354 9.93509 5.61596 9.9463 5.58691 9.95027C5.55786 9.95425 5.52828 9.95086 5.50088 9.94042L5.69571 8.19684L5.70154 8.20209L5.70563 8.16767L6.08954 7.818ZM8.67129 5.46275C8.59859 5.5318 7.45371 6.57533 6.60815 7.34565C6.45127 7.19213 6.31032 7.02326 6.18741 6.84163L8.53946 5.32859C8.53946 5.32859 8.75704 5.19442 8.75004 5.32859C8.75004 5.32859 8.78913 5.3525 8.67129 5.46275Z" fill="#F9851F"/>
<path fill-rule="evenodd" clip-rule="evenodd" d="M5.13339 10.5582C5.74519 10.8996 6.43361 11.0802 7.13422 11.0832C7.96083 11.0774 8.76725 10.8272 9.45192 10.364C10.1366 9.90079 10.6689 9.24535 10.9818 8.48023C11.2946 7.7151 11.3741 6.87449 11.2102 6.06428C11.0462 5.25407 10.6462 4.51049 10.0605 3.92719C9.47474 3.34389 8.72951 2.94696 7.91862 2.78638C7.10774 2.62581 6.26747 2.70878 5.50365 3.02484C4.73982 3.3409 4.08661 3.87591 3.62626 4.5625C3.16592 5.24909 2.91904 6.05654 2.91672 6.88317C2.92227 7.61873 3.12361 8.33955 3.50005 8.9715L2.91672 11.1415L5.13339 10.5582ZM7.13422 3.424C6.51578 3.43108 5.91025 3.60191 5.3793 3.9191C4.84834 4.23629 4.41092 4.68851 4.11156 5.22972C3.90128 5.6099 3.7644 6.02446 3.70623 6.45182L3.19904 6.65334C3.19904 6.65334 2.90329 6.756 2.92721 6.945C2.94996 7.13575 3.19146 7.22209 3.19146 7.22209L3.70648 7.39752C3.77175 7.87533 3.93529 8.33599 4.18839 8.74984L4.27005 8.884L3.92005 10.1615L5.25005 9.79984L5.37839 9.87567C5.90897 10.1882 6.51262 10.3552 7.12839 10.3598C7.50638 10.3598 7.87806 10.2987 8.23022 10.1819L8.26704 10.2105C8.31811 10.2394 8.37478 10.2571 8.43323 10.2623C8.49168 10.2674 8.55057 10.2601 8.60594 10.2406C8.66131 10.2212 8.71187 10.1901 8.75423 10.1495C8.79659 10.1089 8.82977 10.0597 8.85154 10.0052L8.87334 9.89385C9.13793 9.74168 9.38368 9.55429 9.60326 9.33471C10.2596 8.67833 10.6284 7.78809 10.6284 6.85984C10.6284 6.0761 10.3655 5.31947 9.88862 4.70781L9.96454 4.32C9.96454 3.94084 9.45063 4.1695 9.45063 4.1695L9.39396 4.19202C8.76372 3.65677 7.96136 3.35984 7.12839 3.35984L7.13422 3.424Z" fill="#F9851F"/>
<path d="M6.99654 1.1665C5.84282 1.1665 4.715 1.50862 3.75572 2.1496C2.79643 2.79057 2.04876 3.70161 1.60725 4.76752C1.16574 5.83342 1.05022 7.00631 1.2753 8.13786C1.50038 9.26942 2.05595 10.3088 2.87175 11.1246C3.68756 11.9404 4.72696 12.496 5.85852 12.7211C6.99007 12.9462 8.16296 12.8306 9.22886 12.3891C10.2948 11.9476 11.2058 11.2 11.8468 10.2407C12.4878 9.28138 12.8299 8.15356 12.8299 6.99984C12.8299 6.23379 12.679 5.47525 12.3858 4.76752C12.0927 4.05978 11.663 3.41672 11.1213 2.87505C10.5797 2.33337 9.9366 1.90369 9.22886 1.61054C8.52113 1.31739 7.76259 1.1665 6.99654 1.1665ZM8.85154 10.0052C8.82977 10.0597 8.79659 10.1089 8.75423 10.1495C8.71187 10.1901 8.66131 10.2212 8.60594 10.2406C8.55057 10.2601 8.49168 10.2674 8.43323 10.2623C8.37478 10.2571 8.31811 10.2394 8.26704 10.2105L6.68329 8.97967L5.66713 9.91767C5.64354 9.93509 5.61596 9.9463 5.58691 9.95027C5.55786 9.95425 5.52828 9.95086 5.50088 9.94042L5.69571 8.19684L5.70154 8.20209L5.70563 8.16767C5.70563 8.16767 8.55521 5.573 8.67129 5.46275C8.78913 5.3525 8.75004 5.32859 8.75004 5.32859C8.75704 5.19442 8.53946 5.32859 8.53946 5.32859L4.76354 7.75759L3.19146 7.22209C3.19146 7.22209 2.94996 7.13575 2.92721 6.945C2.90329 6.756 3.19904 6.65334 3.19904 6.65334L9.45063 4.1695C9.45063 4.1695 9.96454 3.94084 9.96454 4.32L8.85154 10.0052Z" fill="#F9851F"/>
</svg>
