<svg width="13" height="11" viewBox="0 0 13 11" fill="none" xmlns="http://www.w3.org/2000/svg">
<path d="M11.4057 0.748251C11.2653 0.758667 11.1275 0.791608 10.9975 0.845813H10.9958C10.8711 0.895251 10.2783 1.14463 9.37702 1.52263L6.1474 2.88281C3.82996 3.85844 1.55189 4.81919 1.55189 4.81919L1.57902 4.80869C1.57902 4.80869 1.42196 4.86031 1.25789 4.97275C1.15631 5.03696 1.06904 5.1214 1.00152 5.22081C0.92102 5.33894 0.85627 5.51963 0.880332 5.70644C0.919707 6.02231 1.12446 6.21175 1.27146 6.31631C1.42021 6.42219 1.56196 6.47163 1.56196 6.47163H1.56546L3.70177 7.19131C3.79758 7.49888 4.35277 9.32413 4.48621 9.74456C4.56496 9.99569 4.64152 10.1528 4.73733 10.2726C4.78312 10.3339 4.83839 10.3851 4.90314 10.4262C4.93678 10.4464 4.97298 10.462 5.01077 10.4726L4.98889 10.4673C4.99546 10.4691 5.00071 10.4743 5.00552 10.4761C5.02302 10.4809 5.03483 10.4826 5.05715 10.4861C5.39533 10.5885 5.66702 10.3785 5.66702 10.3785L5.68233 10.3663L6.94365 9.21781L9.05764 10.8396L9.10577 10.8602C9.54633 11.0536 9.99258 10.9459 10.2284 10.7561C10.466 10.5649 10.5583 10.3203 10.5583 10.3203L10.5736 10.2809L12.2072 1.912C12.2536 1.7055 12.2654 1.51213 12.2142 1.32444C12.1617 1.13435 12.0398 0.970894 11.8725 0.866376C11.7323 0.781063 11.5696 0.739905 11.4057 0.748251ZM11.3615 1.64513C11.3598 1.67269 11.365 1.66963 11.3528 1.72256V1.72738L9.73446 10.0093C9.72746 10.0211 9.71564 10.0469 9.68327 10.0727C9.64915 10.0998 9.62202 10.1169 9.47983 10.0604L6.89421 8.07813L5.33233 9.50175L5.66046 7.40613L9.88496 3.46863C10.0591 3.30675 10.0009 3.27263 10.0009 3.27263C10.0131 3.074 9.73796 3.21444 9.73796 3.21444L4.41096 6.5145L4.40921 6.50575L1.85596 5.64606V5.64431L1.8494 5.643L1.86252 5.63775L1.87652 5.63075L1.89008 5.62594C1.89008 5.62594 4.16989 4.66519 6.48733 3.68956C7.64758 3.20088 8.81658 2.70869 9.71565 2.32894C10.2488 2.1045 10.7826 1.88138 11.3169 1.65956C11.3528 1.64556 11.3357 1.64513 11.3615 1.64513Z" fill="#1B1B1B"/>
</svg>
