<svg width="12" height="12" viewBox="0 0 12 12" fill="none" xmlns="http://www.w3.org/2000/svg">
<path d="M8.68341 7.16667C8.56675 7.10833 7.80841 6.75833 7.69175 6.7C7.57508 6.64167 7.45841 6.64167 7.34175 6.75833C7.22508 6.875 6.99175 7.225 6.87508 7.34167C6.81675 7.45833 6.70008 7.45833 6.58341 7.4C6.17508 7.225 5.76675 6.99167 5.41675 6.7C5.12508 6.40833 4.83341 6.05833 4.60008 5.70833C4.54175 5.59167 4.60008 5.475 4.65841 5.41667C4.71675 5.35833 4.77508 5.24167 4.89175 5.18333C4.95008 5.125 5.00841 5.00833 5.00841 4.95C5.06675 4.89167 5.06675 4.775 5.00841 4.71667C4.95008 4.65833 4.65841 3.95833 4.54175 3.66667C4.48341 3.25833 4.36675 3.25833 4.25008 3.25833H3.95841C3.84175 3.25833 3.66675 3.375 3.60841 3.43333C3.25841 3.78333 3.08341 4.19167 3.08341 4.65833C3.14175 5.18333 3.31675 5.70833 3.66675 6.175C4.30841 7.10833 5.12508 7.86667 6.11675 8.33333C6.40841 8.45 6.64175 8.56667 6.93341 8.625C7.22508 8.74167 7.51675 8.74167 7.86675 8.68333C8.27508 8.625 8.62508 8.33333 8.85841 7.98333C8.97508 7.75 8.97508 7.51667 8.91675 7.28333L8.68341 7.16667ZM10.1417 1.85833C7.86675 -0.416666 4.19175 -0.416666 1.91675 1.85833C0.0500814 3.725 -0.299919 6.58333 0.983415 8.85833L0.166748 11.8333L3.25841 11.0167C4.13341 11.4833 5.06675 11.7167 6.00008 11.7167C9.20841 11.7167 11.7751 9.15 11.7751 5.94167C11.8334 4.425 11.1917 2.96667 10.1417 1.85833ZM8.56675 10.025C7.80841 10.4917 6.93341 10.7833 6.00008 10.7833C5.12508 10.7833 4.30841 10.55 3.55008 10.1417L3.37508 10.025L1.56675 10.4917L2.03341 8.74167L1.91675 8.56667C0.516748 6.23333 1.21675 3.31667 3.49175 1.85833C5.76675 0.400001 8.68341 1.15833 10.0834 3.375C11.4834 5.65 10.8417 8.625 8.56675 10.025Z" fill="#1B1B1B"/>
</svg>
