<svg width="14" height="14" viewBox="0 0 14 14" fill="none" xmlns="http://www.w3.org/2000/svg">
<path d="M12.8333 3.82067C12.8264 3.56902 12.8069 3.31788 12.775 3.06817C12.7313 2.84951 12.6588 2.63764 12.5591 2.43817C12.4545 2.22204 12.3145 2.02489 12.145 1.85484C11.9736 1.68688 11.7767 1.5471 11.5616 1.44067C11.3619 1.34306 11.15 1.27244 10.9316 1.23067C10.6844 1.1933 10.435 1.17187 10.185 1.1665H3.82079C3.56915 1.17345 3.318 1.19291 3.06829 1.22484C2.84963 1.26846 2.63777 1.34105 2.43829 1.44067C2.22216 1.54531 2.02501 1.68529 1.85496 1.85484C1.687 2.02622 1.54722 2.2231 1.44079 2.43817C1.34318 2.63794 1.27256 2.84979 1.23079 3.06817C1.19342 3.31543 1.17199 3.56483 1.16663 3.81484V10.179C1.17357 10.4307 1.19304 10.6818 1.22496 10.9315C1.26858 11.1502 1.34117 11.362 1.44079 11.5615C1.54544 11.7776 1.68542 11.9748 1.85496 12.1448C2.02634 12.3128 2.22322 12.4526 2.43829 12.559C2.63806 12.6566 2.84991 12.7272 3.06829 12.769C3.31555 12.8064 3.56495 12.8278 3.81496 12.8332H10.1791C10.4308 12.8262 10.6819 12.8068 10.9316 12.7748C11.1503 12.7312 11.3622 12.6586 11.5616 12.559C11.7778 12.4544 11.9749 12.3144 12.145 12.1448C12.3129 11.9735 12.4527 11.7766 12.5591 11.5615C12.6567 11.3617 12.7274 11.1499 12.7691 10.9315C12.8065 10.6842 12.8279 10.4348 12.8333 10.1848V3.82067ZM7.13413 11.0832C6.43351 11.0802 5.7451 10.8996 5.13329 10.5582L2.91663 11.1415L3.49996 8.9715C3.12352 8.33955 2.92217 7.61873 2.91663 6.88317C2.91895 6.05654 3.16583 5.24909 3.62617 4.5625C4.08651 3.87591 4.73973 3.3409 5.50355 3.02484C6.26737 2.70878 7.10764 2.62581 7.91853 2.78638C8.72941 2.94696 9.47465 3.34389 10.0604 3.92719C10.6461 4.51049 11.0461 5.25407 11.2101 6.06428C11.374 6.87449 11.2945 7.7151 10.9817 8.48023C10.6688 9.24536 10.1365 9.90079 9.45183 10.364C8.76716 10.8272 7.96074 11.0774 7.13413 11.0832ZM7.13413 3.424C6.51568 3.43108 5.91016 3.60191 5.3792 3.9191C4.84825 4.23629 4.41082 4.68851 4.11147 5.22972C3.81211 5.77094 3.66151 6.38181 3.67501 7.00015C3.6885 7.61848 3.86561 8.2222 4.18829 8.74984L4.26996 8.884L3.91996 10.1615L5.24996 9.79984L5.37829 9.87567C5.90888 10.1882 6.51253 10.3552 7.12829 10.3598C8.05655 10.3598 8.94679 9.99109 9.60317 9.33471C10.2595 8.67833 10.6283 7.7881 10.6283 6.85984C10.6283 5.93158 10.2595 5.04134 9.60317 4.38496C8.94679 3.72859 8.05655 3.35984 7.12829 3.35984L7.13413 3.424ZM9.17579 8.394C9.09939 8.52144 8.99709 8.63142 8.8755 8.71684C8.75392 8.80225 8.61576 8.86118 8.46996 8.88984C8.25215 8.93038 8.02769 8.91635 7.81663 8.849C7.61796 8.78675 7.42317 8.71273 7.23329 8.62734C6.51214 8.26548 5.89713 7.72282 5.44829 7.05234C5.20498 6.74136 5.05706 6.3665 5.02246 5.97317C5.01899 5.80971 5.04991 5.64735 5.11322 5.49661C5.17653 5.34588 5.27081 5.21013 5.38996 5.09817C5.42505 5.05838 5.46811 5.0264 5.51634 5.00429C5.56457 4.98219 5.61691 4.97045 5.66996 4.96984H5.83329C5.89746 4.96984 5.98496 4.96984 6.06663 5.15067C6.14829 5.3315 6.36413 5.874 6.39329 5.9265C6.40763 5.95449 6.4151 5.98548 6.4151 6.01692C6.4151 6.04836 6.40763 6.07935 6.39329 6.10734C6.36785 6.1709 6.3324 6.22998 6.28829 6.28234C6.23579 6.3465 6.17746 6.42234 6.13079 6.469C6.08413 6.51567 6.02579 6.574 6.08413 6.679C6.24311 6.94668 6.43954 7.19026 6.66746 7.40234C6.91592 7.62188 7.19999 7.79745 7.50746 7.9215C7.61246 7.974 7.67663 7.96817 7.73496 7.9215C7.79329 7.87484 7.99746 7.61817 8.06746 7.51317C8.13746 7.40817 8.20746 7.42567 8.30079 7.46067C8.39413 7.49567 8.91329 7.7465 9.01829 7.799C9.12329 7.8515 9.18746 7.87484 9.21663 7.9215C9.24193 8.07418 9.22787 8.23078 9.17579 8.3765V8.394Z" fill="#F9851F"/>
</svg>
