<svg width="16" height="16" viewBox="0 0 16 16" fill="none" xmlns="http://www.w3.org/2000/svg">
<path d="M12.6667 1.33325H6.00004C5.46961 1.33325 4.9609 1.54397 4.58583 1.91904C4.21075 2.29411 4.00004 2.80282 4.00004 3.33325V3.99992H3.33337C2.80294 3.99992 2.29423 4.21063 1.91916 4.58571C1.54409 4.96078 1.33337 5.46949 1.33337 5.99992V12.6666C1.33337 13.197 1.54409 13.7057 1.91916 14.0808C2.29423 14.4559 2.80294 14.6666 3.33337 14.6666H10C10.5305 14.6666 11.0392 14.4559 11.4143 14.0808C11.7893 13.7057 12 13.197 12 12.6666V11.9999H12.6667C13.1971 11.9999 13.7058 11.7892 14.0809 11.4141C14.456 11.0391 14.6667 10.5304 14.6667 9.99992V3.33325C14.6667 2.80282 14.456 2.29411 14.0809 1.91904C13.7058 1.54397 13.1971 1.33325 12.6667 1.33325ZM10.6667 12.6666C10.6667 12.8434 10.5965 13.013 10.4714 13.138C10.3464 13.263 10.1769 13.3333 10 13.3333H3.33337C3.15656 13.3333 2.98699 13.263 2.86197 13.138C2.73695 13.013 2.66671 12.8434 2.66671 12.6666V7.99992H10.6667V12.6666ZM10.6667 6.66659H2.66671V5.99992C2.66671 5.82311 2.73695 5.65354 2.86197 5.52851C2.98699 5.40349 3.15656 5.33325 3.33337 5.33325H10C10.1769 5.33325 10.3464 5.40349 10.4714 5.52851C10.5965 5.65354 10.6667 5.82311 10.6667 5.99992V6.66659ZM13.3334 9.99992C13.3334 10.1767 13.2631 10.3463 13.1381 10.4713C13.0131 10.5963 12.8435 10.6666 12.6667 10.6666H12V5.99992C11.9982 5.77249 11.9577 5.54703 11.88 5.33325H13.3334V9.99992ZM13.3334 3.99992H5.33337V3.33325C5.33337 3.15644 5.40361 2.98687 5.52864 2.86185C5.65366 2.73682 5.82323 2.66659 6.00004 2.66659H12.6667C12.8435 2.66659 13.0131 2.73682 13.1381 2.86185C13.2631 2.98687 13.3334 3.15644 13.3334 3.33325V3.99992Z" fill="#F9851F"/>
</svg>
