<svg width="22" height="22" viewBox="0 0 22 22" fill="none" xmlns="http://www.w3.org/2000/svg">
<path d="M19.1308 15.8125L16.6467 11.5225C17.155 10.5889 17.4198 9.5422 17.4167 8.47917C17.4167 6.77736 16.7406 5.14526 15.5373 3.9419C14.3339 2.73854 12.7018 2.0625 11 2.0625C9.29818 2.0625 7.66608 2.73854 6.46272 3.9419C5.25936 5.14526 4.58332 6.77736 4.58332 8.47917C4.58016 9.5422 4.84499 10.5889 5.35332 11.5225L2.86915 15.8125C2.78854 15.9521 2.74618 16.1105 2.74634 16.2717C2.7465 16.433 2.78917 16.5913 2.87006 16.7307C2.95095 16.8702 3.06718 16.9859 3.20704 17.0661C3.3469 17.1463 3.50543 17.1881 3.66665 17.1875H6.29749L7.63582 19.4425C7.68094 19.5172 7.7365 19.5851 7.80082 19.6442C7.97075 19.808 8.19731 19.8999 8.43332 19.9008H8.56165C8.70004 19.8819 8.83227 19.8316 8.94825 19.7537C9.06422 19.6759 9.16087 19.5726 9.23082 19.4517L11 16.4083L12.7692 19.4792C12.8401 19.5984 12.9372 19.6999 13.0531 19.7761C13.1691 19.8523 13.3008 19.9012 13.4383 19.9192H13.5667C13.8058 19.9206 14.0361 19.8285 14.2083 19.6625C14.2697 19.6065 14.3222 19.5416 14.3642 19.47L15.7025 17.215H18.3333C18.4948 17.2156 18.6537 17.1736 18.7937 17.0931C18.9338 17.0126 19.0501 16.8966 19.1308 16.7567C19.2165 16.6141 19.2617 16.4509 19.2617 16.2846C19.2617 16.1183 19.2165 15.9551 19.1308 15.8125ZM8.42415 17.215L7.60832 15.8492C7.52799 15.7137 7.41409 15.6011 7.27761 15.5225C7.14113 15.4438 6.98668 15.4016 6.82915 15.4H5.24332L6.55415 13.1267C7.45682 13.9965 8.59449 14.5828 9.82665 14.8133L8.42415 17.215ZM11 13.0625C10.0935 13.0625 9.20735 12.7937 8.45362 12.2901C7.6999 11.7864 7.11244 11.0706 6.76554 10.2331C6.41864 9.39564 6.32787 8.47408 6.50472 7.585C6.68157 6.69592 7.11809 5.87925 7.75908 5.23826C8.40007 4.59727 9.21674 4.16075 10.1058 3.9839C10.9949 3.80705 11.9165 3.89782 12.754 4.24472C13.5914 4.59162 14.3073 5.17908 14.8109 5.9328C15.3145 6.68653 15.5833 7.57267 15.5833 8.47917C15.5833 9.69474 15.1004 10.8605 14.2409 11.7201C13.3814 12.5796 12.2156 13.0625 11 13.0625ZM15.1708 15.4C15.0133 15.4016 14.8588 15.4438 14.7224 15.5225C14.5859 15.6011 14.472 15.7137 14.3917 15.8492L13.5758 17.215L12.1825 14.7858C13.4103 14.5506 14.5438 13.9648 15.4458 13.0992L16.7567 15.3725L15.1708 15.4Z" fill="#1B1B1B"/>
</svg>
