<svg width="22" height="22" viewBox="0 0 22 22" fill="none" xmlns="http://www.w3.org/2000/svg">
<path d="M11.9167 12.8334H8.25008C8.00697 12.8334 7.77381 12.93 7.6019 13.1019C7.42999 13.2738 7.33341 13.5069 7.33341 13.75C7.33341 13.9932 7.42999 14.2263 7.6019 14.3982C7.77381 14.5701 8.00697 14.6667 8.25008 14.6667H11.9167C12.1599 14.6667 12.393 14.5701 12.5649 14.3982C12.7368 14.2263 12.8334 13.9932 12.8334 13.75C12.8334 13.5069 12.7368 13.2738 12.5649 13.1019C12.393 12.93 12.1599 12.8334 11.9167 12.8334ZM15.5834 3.66671H14.5017C14.3126 3.13179 13.9627 2.66846 13.4999 2.34023C13.0371 2.01201 12.4841 1.83497 11.9167 1.83337H10.0834C9.51605 1.83497 8.96306 2.01201 8.50027 2.34023C8.03748 2.66846 7.68754 3.13179 7.49841 3.66671H6.41675C5.6874 3.66671 4.98793 3.95644 4.4722 4.47216C3.95648 4.98789 3.66675 5.68736 3.66675 6.41671V17.4167C3.66675 18.1461 3.95648 18.8455 4.4722 19.3613C4.98793 19.877 5.6874 20.1667 6.41675 20.1667H15.5834C16.3128 20.1667 17.0122 19.877 17.528 19.3613C18.0437 18.8455 18.3334 18.1461 18.3334 17.4167V6.41671C18.3334 5.68736 18.0437 4.98789 17.528 4.47216C17.0122 3.95644 16.3128 3.66671 15.5834 3.66671ZM9.16675 4.58337C9.16675 4.34026 9.26333 4.1071 9.43523 3.93519C9.60714 3.76328 9.8403 3.66671 10.0834 3.66671H11.9167C12.1599 3.66671 12.393 3.76328 12.5649 3.93519C12.7368 4.1071 12.8334 4.34026 12.8334 4.58337V5.50004H9.16675V4.58337ZM16.5001 17.4167C16.5001 17.6598 16.4035 17.893 16.2316 18.0649C16.0597 18.2368 15.8265 18.3334 15.5834 18.3334H6.41675C6.17363 18.3334 5.94048 18.2368 5.76857 18.0649C5.59666 17.893 5.50008 17.6598 5.50008 17.4167V6.41671C5.50008 6.17359 5.59666 5.94043 5.76857 5.76853C5.94048 5.59662 6.17363 5.50004 6.41675 5.50004H7.33341V6.41671C7.33341 6.65982 7.42999 6.89298 7.6019 7.06489C7.77381 7.2368 8.00697 7.33337 8.25008 7.33337H13.7501C13.9932 7.33337 14.2264 7.2368 14.3983 7.06489C14.5702 6.89298 14.6667 6.65982 14.6667 6.41671V5.50004H15.5834C15.8265 5.50004 16.0597 5.59662 16.2316 5.76853C16.4035 5.94043 16.5001 6.17359 16.5001 6.41671V17.4167ZM13.7501 9.16671H8.25008C8.00697 9.16671 7.77381 9.26328 7.6019 9.43519C7.42999 9.6071 7.33341 9.84026 7.33341 10.0834C7.33341 10.3265 7.42999 10.5596 7.6019 10.7316C7.77381 10.9035 8.00697 11 8.25008 11H13.7501C13.9932 11 14.2264 10.9035 14.3983 10.7316C14.5702 10.5596 14.6667 10.3265 14.6667 10.0834C14.6667 9.84026 14.5702 9.6071 14.3983 9.43519C14.2264 9.26328 13.9932 9.16671 13.7501 9.16671Z" fill="#1B1B1B"/>
</svg>
