<svg width="24" height="24" viewBox="0 0 24 24" fill="none" xmlns="http://www.w3.org/2000/svg">
<path d="M13.2099 5.70003C13.2896 5.70966 13.3702 5.70966 13.4499 5.70003L15.3899 5.21003C15.6471 5.1462 15.8684 4.98292 16.0053 4.75606C16.1421 4.52919 16.1834 4.25728 16.1199 4.00003C16.0561 3.74287 15.8928 3.52156 15.666 3.38469C15.4391 3.24782 15.1672 3.20658 14.9099 3.27003L12.9999 3.73003C12.7347 3.76185 12.493 3.89773 12.328 4.10777C12.1629 4.31781 12.0881 4.58481 12.1199 4.85003C12.1518 5.11524 12.2876 5.35696 12.4977 5.52199C12.7077 5.68702 12.9747 5.76185 13.2399 5.73003L13.2099 5.70003ZM9.50994 9.00003H7.50994C7.24472 9.00003 6.99037 9.10538 6.80283 9.29292C6.61529 9.48046 6.50994 9.73481 6.50994 10C6.50994 10.2652 6.61529 10.5196 6.80283 10.7071C6.99037 10.8947 7.24472 11 7.50994 11H9.50994C9.77515 11 10.0295 10.8947 10.217 10.7071C10.4046 10.5196 10.5099 10.2652 10.5099 10C10.5099 9.73481 10.4046 9.48046 10.217 9.29292C10.0295 9.10538 9.77515 9.00003 9.50994 9.00003ZM13.5099 9.00003C13.2447 9.00003 12.9904 9.10538 12.8028 9.29292C12.6153 9.48046 12.5099 9.73481 12.5099 10C12.5099 10.2652 12.6153 10.5196 12.8028 10.7071C12.9904 10.8947 13.2447 11 13.5099 11H15.5099C15.7752 11 16.0295 10.8947 16.217 10.7071C16.4046 10.5196 16.5099 10.2652 16.5099 10C16.5099 9.73481 16.4046 9.48046 16.217 9.29292C16.0295 9.10538 15.7752 9.00003 15.5099 9.00003H13.5099ZM7.38994 7.15003H7.62994L9.56994 6.67003C9.83117 6.60638 10.0564 6.44155 10.1961 6.21182C10.3359 5.98209 10.3786 5.70627 10.3149 5.44503C10.2513 5.18379 10.0865 4.95854 9.85673 4.81882C9.627 4.67911 9.35117 4.63638 9.08994 4.70003L7.14994 5.18003C6.88472 5.21185 6.64301 5.34773 6.47798 5.55777C6.31294 5.76781 6.23811 6.03481 6.26994 6.30003C6.30176 6.56524 6.43764 6.80696 6.64768 6.97199C6.85772 7.13702 7.12472 7.21185 7.38994 7.18003V7.15003ZM3.99994 10.51C4.26515 10.51 4.51951 10.4047 4.70704 10.2171C4.89458 10.0296 4.99994 9.77524 4.99994 9.51003V7.51003C4.99994 7.24481 4.89458 6.99046 4.70704 6.80292C4.51951 6.61538 4.26515 6.51003 3.99994 6.51003C3.73472 6.51003 3.48037 6.61538 3.29283 6.80292C3.10529 6.99046 2.99994 7.24481 2.99994 7.51003V9.51003C2.99994 9.77524 3.10529 10.0296 3.29283 10.2171C3.48037 10.4047 3.73472 10.51 3.99994 10.51ZM20.6199 2.21003C20.5023 2.11136 20.3636 2.0411 20.2144 2.00468C20.0653 1.96826 19.9098 1.96667 19.7599 2.00003L18.7599 2.24003C18.5028 2.30386 18.2815 2.46713 18.1446 2.694C18.0077 2.92087 17.9665 3.19278 18.0299 3.45003C18.0847 3.6719 18.2138 3.86833 18.3957 4.00661C18.5777 4.14489 18.8015 4.21668 19.0299 4.21003C19.0882 4.4444 19.2293 4.64977 19.4271 4.78822C19.625 4.92667 19.8663 4.98883 20.1064 4.96323C20.3466 4.93764 20.5693 4.826 20.7336 4.64896C20.8978 4.47191 20.9924 4.24141 20.9999 4.00003V3.00003C21.0008 2.84813 20.967 2.69805 20.9011 2.56117C20.8353 2.42429 20.7391 2.3042 20.6199 2.21003ZM19.9999 7.00003C19.7347 7.00003 19.4804 7.10538 19.2928 7.29292C19.1053 7.48046 18.9999 7.73481 18.9999 8.00003V9.14003C18.8115 9.25183 18.665 9.42241 18.583 9.62556C18.5009 9.8287 18.4879 10.0532 18.5458 10.2645C18.6038 10.4758 18.7295 10.6622 18.9037 10.7951C19.0778 10.928 19.2908 11 19.5099 11H19.9999C20.2652 11 20.5195 10.8947 20.707 10.7071C20.8946 10.5196 20.9999 10.2652 20.9999 10V8.00003C20.9999 7.73481 20.8946 7.48046 20.707 7.29292C20.5195 7.10538 20.2652 7.00003 19.9999 7.00003ZM19.9999 13H3.99994C3.73472 13 3.48037 13.1054 3.29283 13.2929C3.10529 13.4805 2.99994 13.7348 2.99994 14V17C2.99328 17.2285 3.06507 17.4523 3.20335 17.6342C3.34163 17.8162 3.53806 17.9453 3.75994 18L19.7599 22C19.8396 22.0097 19.9202 22.0097 19.9999 22C20.2652 22 20.5195 21.8947 20.707 21.7071C20.8946 21.5196 20.9999 21.2652 20.9999 21V14C20.9999 13.7348 20.8946 13.4805 20.707 13.2929C20.5195 13.1054 20.2652 13 19.9999 13ZM18.9999 19.72L4.99994 16.22V15H18.9999V19.72Z" fill="#898989"/>
</svg>
