<svg width="22" height="22" viewBox="0 0 22 22" fill="none" xmlns="http://www.w3.org/2000/svg">
<path d="M12.1916 11.2017C12.6807 10.7783 13.073 10.2547 13.3419 9.66631C13.6108 9.07794 13.7499 8.43861 13.7499 7.79171C13.7499 6.57613 13.267 5.41034 12.4075 4.5508C11.5479 3.69126 10.3822 3.20837 9.16658 3.20837C7.95101 3.20837 6.78522 3.69126 5.92568 4.5508C5.06614 5.41034 4.58325 6.57613 4.58325 7.79171C4.58324 8.43861 4.7224 9.07794 4.99128 9.66631C5.26016 10.2547 5.65247 10.7783 6.14158 11.2017C4.85838 11.7828 3.76968 12.7211 3.00565 13.9045C2.24162 15.088 1.8346 16.4664 1.83325 17.875C1.83325 18.1182 1.92983 18.3513 2.10174 18.5232C2.27365 18.6951 2.5068 18.7917 2.74992 18.7917C2.99303 18.7917 3.22619 18.6951 3.3981 18.5232C3.57001 18.3513 3.66659 18.1182 3.66659 17.875C3.66659 16.4163 4.24605 15.0174 5.2775 13.986C6.30895 12.9545 7.70789 12.375 9.16658 12.375C10.6253 12.375 12.0242 12.9545 13.0557 13.986C14.0871 15.0174 14.6666 16.4163 14.6666 17.875C14.6666 18.1182 14.7632 18.3513 14.9351 18.5232C15.107 18.6951 15.3401 18.7917 15.5833 18.7917C15.8264 18.7917 16.0595 18.6951 16.2314 18.5232C16.4033 18.3513 16.4999 18.1182 16.4999 17.875C16.4986 16.4664 16.0915 15.088 15.3275 13.9045C14.5635 12.7211 13.4748 11.7828 12.1916 11.2017ZM9.16658 10.5417C8.62269 10.5417 8.091 10.3804 7.63877 10.0782C7.18653 9.77607 6.83406 9.34658 6.62592 8.84409C6.41778 8.34159 6.36332 7.78866 6.46943 7.25521C6.57553 6.72176 6.83745 6.23176 7.22204 5.84716C7.60664 5.46257 8.09664 5.20066 8.63009 5.09455C9.16353 4.98844 9.71647 5.0429 10.219 5.25104C10.7215 5.45918 11.151 5.81165 11.4531 6.26389C11.7553 6.71612 11.9166 7.24781 11.9166 7.79171C11.9166 8.52105 11.6269 9.22053 11.1111 9.73625C10.5954 10.252 9.89593 10.5417 9.16658 10.5417ZM19.9007 8.36921C19.8155 8.28329 19.7141 8.2151 19.6024 8.16856C19.4907 8.12202 19.3709 8.09806 19.2499 8.09806C19.1289 8.09806 19.0091 8.12202 18.8974 8.16856C18.7857 8.2151 18.6843 8.28329 18.5991 8.36921L16.7658 10.2025L16.1974 9.62504C16.1122 9.53912 16.0108 9.47093 15.8991 9.42439C15.7874 9.37785 15.6676 9.35389 15.5466 9.35389C15.4256 9.35389 15.3058 9.37785 15.1941 9.42439C15.0824 9.47093 14.981 9.53912 14.8958 9.62504C14.725 9.79679 14.6292 10.0291 14.6292 10.2713C14.6292 10.5135 14.725 10.7458 14.8958 10.9175L16.1241 12.1459C16.2958 12.3166 16.5282 12.4124 16.7703 12.4124C17.0125 12.4124 17.2448 12.3166 17.4166 12.1459L19.8641 9.69837C19.9566 9.61525 20.0313 9.51416 20.0835 9.40126C20.1358 9.28836 20.1645 9.16601 20.1679 9.04167C20.1713 8.91732 20.1494 8.79357 20.1035 8.67796C20.0576 8.56236 19.9886 8.4573 19.9007 8.36921Z" fill="#1B1B1B"/>
</svg>
