<svg width="16" height="16" viewBox="0 0 16 16" fill="none" xmlns="http://www.w3.org/2000/svg">
<path d="M8.80671 3.79998C8.85985 3.8064 8.91357 3.8064 8.96671 3.79998L10.26 3.47331C10.4315 3.43076 10.579 3.32191 10.6703 3.17066C10.7615 3.01942 10.789 2.83814 10.7467 2.66664C10.7042 2.49521 10.5953 2.34767 10.4441 2.25642C10.2928 2.16518 10.1115 2.13768 9.94004 2.17998L8.66671 2.48664C8.48989 2.50786 8.32875 2.59845 8.21873 2.73848C8.10871 2.8785 8.05882 3.0565 8.08004 3.23331C8.10126 3.41012 8.19184 3.57126 8.33187 3.68128C8.4719 3.79131 8.64989 3.8412 8.82671 3.81998L8.80671 3.79998ZM6.34004 5.99998H5.00671C4.82989 5.99998 4.66033 6.07022 4.5353 6.19524C4.41028 6.32026 4.34004 6.48983 4.34004 6.66664C4.34004 6.84346 4.41028 7.01302 4.5353 7.13805C4.66033 7.26307 4.82989 7.33331 5.00671 7.33331H6.34004C6.51685 7.33331 6.68642 7.26307 6.81144 7.13805C6.93647 7.01302 7.00671 6.84346 7.00671 6.66664C7.00671 6.48983 6.93647 6.32026 6.81144 6.19524C6.68642 6.07022 6.51685 5.99998 6.34004 5.99998ZM9.00671 5.99998C8.8299 5.99998 8.66033 6.07022 8.5353 6.19524C8.41028 6.32026 8.34004 6.48983 8.34004 6.66664C8.34004 6.84346 8.41028 7.01302 8.5353 7.13805C8.66033 7.26307 8.8299 7.33331 9.00671 7.33331H10.34C10.5169 7.33331 10.6864 7.26307 10.8114 7.13805C10.9365 7.01302 11.0067 6.84346 11.0067 6.66664C11.0067 6.48983 10.9365 6.32026 10.8114 6.19524C10.6864 6.07022 10.5169 5.99998 10.34 5.99998H9.00671ZM4.92671 4.76664H5.08671L6.38004 4.44664C6.5542 4.40421 6.70437 4.29433 6.79751 4.14117C6.89065 3.98802 6.91914 3.80414 6.87671 3.62998C6.83427 3.45582 6.72439 3.30565 6.57124 3.21251C6.41808 3.11936 6.2342 3.09088 6.06004 3.13331L4.76671 3.45331C4.58989 3.47453 4.42875 3.56511 4.31873 3.70514C4.20871 3.84517 4.15882 4.02317 4.18004 4.19998C4.20126 4.37679 4.29184 4.53793 4.43187 4.64795C4.5719 4.75797 4.74989 4.80786 4.92671 4.78664V4.76664ZM2.66671 7.00664C2.84352 7.00664 3.01309 6.93641 3.13811 6.81138C3.26313 6.68636 3.33337 6.51679 3.33337 6.33998V5.00664C3.33337 4.82983 3.26313 4.66026 3.13811 4.53524C3.01309 4.41022 2.84352 4.33998 2.66671 4.33998C2.48989 4.33998 2.32033 4.41022 2.1953 4.53524C2.07028 4.66026 2.00004 4.82983 2.00004 5.00664V6.33998C2.00004 6.51679 2.07028 6.68636 2.1953 6.81138C2.32033 6.93641 2.48989 7.00664 2.66671 7.00664ZM13.7467 1.47331C13.6683 1.40753 13.5758 1.36069 13.4764 1.33641C13.377 1.31213 13.2733 1.31107 13.1734 1.33331L12.5067 1.49331C12.3353 1.53586 12.1877 1.64471 12.0965 1.79596C12.0052 1.9472 11.9777 2.12848 12.02 2.29998C12.0565 2.4479 12.1426 2.57885 12.2639 2.67104C12.3852 2.76322 12.5344 2.81108 12.6867 2.80664C12.7255 2.96289 12.8196 3.09981 12.9515 3.19211C13.0834 3.2844 13.2443 3.32585 13.4044 3.30878C13.5645 3.29172 13.713 3.21729 13.8225 3.09926C13.9319 2.98123 13.995 2.82756 14 2.66664V1.99998C14.0006 1.89872 13.9781 1.79866 13.9342 1.7074C13.8903 1.61615 13.8262 1.53609 13.7467 1.47331ZM13.3334 4.66664C13.1566 4.66664 12.987 4.73688 12.862 4.86191C12.7369 4.98693 12.6667 5.1565 12.6667 5.33331V6.09331C12.5411 6.16784 12.4434 6.28157 12.3887 6.417C12.334 6.55243 12.3253 6.70207 12.364 6.84293C12.4026 6.98379 12.4864 7.10807 12.6025 7.19667C12.7186 7.28526 12.8606 7.33327 13.0067 7.33331H13.3334C13.5102 7.33331 13.6798 7.26307 13.8048 7.13805C13.9298 7.01302 14 6.84346 14 6.66664V5.33331C14 5.1565 13.9298 4.98693 13.8048 4.86191C13.6798 4.73688 13.5102 4.66664 13.3334 4.66664ZM13.3334 8.66664H2.66671C2.48989 8.66664 2.32033 8.73688 2.1953 8.86191C2.07028 8.98693 2.00004 9.1565 2.00004 9.33331V11.3333C1.9956 11.4856 2.04346 11.6348 2.13565 11.7561C2.22784 11.8774 2.35879 11.9635 2.50671 12L13.1734 14.6666C13.2265 14.6731 13.2802 14.6731 13.3334 14.6666C13.5102 14.6666 13.6798 14.5964 13.8048 14.4714C13.9298 14.3464 14 14.1768 14 14V9.33331C14 9.1565 13.9298 8.98693 13.8048 8.86191C13.6798 8.73688 13.5102 8.66664 13.3334 8.66664ZM12.6667 13.1466L3.33337 10.8133V9.99998H12.6667V13.1466Z" fill="#F9851F"/>
</svg>
