<svg width="22" height="22" viewBox="0 0 22 22" fill="none" xmlns="http://www.w3.org/2000/svg">
<path d="M9.16659 11.9166C8.98529 11.9166 8.80806 11.9703 8.65731 12.0711C8.50657 12.1718 8.38908 12.315 8.3197 12.4825C8.25032 12.65 8.23216 12.8343 8.26753 13.0121C8.3029 13.1899 8.39021 13.3532 8.5184 13.4814C8.6466 13.6096 8.80994 13.6969 8.98775 13.7323C9.16557 13.7677 9.34988 13.7495 9.51738 13.6801C9.68488 13.6108 9.82804 13.4933 9.92877 13.3425C10.0295 13.1918 10.0833 13.0146 10.0833 12.8333C10.0833 12.5901 9.98668 12.357 9.81477 12.1851C9.64286 12.0132 9.4097 11.9166 9.16659 11.9166ZM9.16659 8.24992C8.98529 8.24992 8.80806 8.30368 8.65731 8.40441C8.50657 8.50513 8.38908 8.64829 8.3197 8.81579C8.25032 8.98329 8.23216 9.1676 8.26753 9.34542C8.3029 9.52323 8.39021 9.68657 8.5184 9.81477C8.6466 9.94296 8.80994 10.0303 8.98775 10.0656C9.16557 10.101 9.34988 10.0829 9.51738 10.0135C9.68488 9.94409 9.82804 9.8266 9.92877 9.67586C10.0295 9.52511 10.0833 9.34789 10.0833 9.16659C10.0833 8.92347 9.98668 8.69031 9.81477 8.5184C9.64286 8.3465 9.4097 8.24992 9.16659 8.24992ZM12.8333 8.24992C12.652 8.24992 12.4747 8.30368 12.324 8.40441C12.1732 8.50513 12.0557 8.64829 11.9864 8.81579C11.917 8.98329 11.8988 9.1676 11.9342 9.34542C11.9696 9.52323 12.0569 9.68657 12.1851 9.81477C12.3133 9.94296 12.4766 10.0303 12.6544 10.0656C12.8322 10.101 13.0165 10.0829 13.184 10.0135C13.3515 9.94409 13.4947 9.8266 13.5954 9.67586C13.6962 9.52511 13.7499 9.34789 13.7499 9.16659C13.7499 8.92347 13.6533 8.69031 13.4814 8.5184C13.3095 8.3465 13.0764 8.24992 12.8333 8.24992ZM19.2499 11.9166C19.493 11.9166 19.7262 11.82 19.8981 11.6481C20.07 11.4762 20.1666 11.243 20.1666 10.9999C20.1666 10.7568 20.07 10.5236 19.8981 10.3517C19.7262 10.1798 19.493 10.0833 19.2499 10.0833H17.4166V8.24992H19.2499C19.493 8.24992 19.7262 8.15334 19.8981 7.98143C20.07 7.80953 20.1666 7.57637 20.1666 7.33325C20.1666 7.09014 20.07 6.85698 19.8981 6.68507C19.7262 6.51316 19.493 6.41659 19.2499 6.41659H17.2516C17.1147 6.03214 16.894 5.68297 16.6054 5.39441C16.3169 5.10585 15.9677 4.88513 15.5833 4.74825V2.74992C15.5833 2.5068 15.4867 2.27365 15.3148 2.10174C15.1429 1.92983 14.9097 1.83325 14.6666 1.83325C14.4235 1.83325 14.1903 1.92983 14.0184 2.10174C13.8465 2.27365 13.7499 2.5068 13.7499 2.74992V4.58325H11.9166V2.74992C11.9166 2.5068 11.82 2.27365 11.6481 2.10174C11.4762 1.92983 11.243 1.83325 10.9999 1.83325C10.7568 1.83325 10.5236 1.92983 10.3517 2.10174C10.1798 2.27365 10.0833 2.5068 10.0833 2.74992V4.58325H8.24992V2.74992C8.24992 2.5068 8.15334 2.27365 7.98143 2.10174C7.80953 1.92983 7.57637 1.83325 7.33325 1.83325C7.09014 1.83325 6.85698 1.92983 6.68507 2.10174C6.51316 2.27365 6.41659 2.5068 6.41659 2.74992V4.74825C6.03214 4.88513 5.68297 5.10585 5.39441 5.39441C5.10585 5.68297 4.88513 6.03214 4.74825 6.41659H2.74992C2.5068 6.41659 2.27365 6.51316 2.10174 6.68507C1.92983 6.85698 1.83325 7.09014 1.83325 7.33325C1.83325 7.57637 1.92983 7.80953 2.10174 7.98143C2.27365 8.15334 2.5068 8.24992 2.74992 8.24992H4.58325V10.0833H2.74992C2.5068 10.0833 2.27365 10.1798 2.10174 10.3517C1.92983 10.5236 1.83325 10.7568 1.83325 10.9999C1.83325 11.243 1.92983 11.4762 2.10174 11.6481C2.27365 11.82 2.5068 11.9166 2.74992 11.9166H4.58325V13.7499H2.74992C2.5068 13.7499 2.27365 13.8465 2.10174 14.0184C1.92983 14.1903 1.83325 14.4235 1.83325 14.6666C1.83325 14.9097 1.92983 15.1429 2.10174 15.3148C2.27365 15.4867 2.5068 15.5833 2.74992 15.5833H4.74825C4.88513 15.9677 5.10585 16.3169 5.39441 16.6054C5.68297 16.894 6.03214 17.1147 6.41659 17.2516V19.2499C6.41659 19.493 6.51316 19.7262 6.68507 19.8981C6.85698 20.07 7.09014 20.1666 7.33325 20.1666C7.57637 20.1666 7.80953 20.07 7.98143 19.8981C8.15334 19.7262 8.24992 19.493 8.24992 19.2499V17.4166H10.0833V19.2499C10.0833 19.493 10.1798 19.7262 10.3517 19.8981C10.5236 20.07 10.7568 20.1666 10.9999 20.1666C11.243 20.1666 11.4762 20.07 11.6481 19.8981C11.82 19.7262 11.9166 19.493 11.9166 19.2499V17.4166H13.7499V19.2499C13.7499 19.493 13.8465 19.7262 14.0184 19.8981C14.1903 20.07 14.4235 20.1666 14.6666 20.1666C14.9097 20.1666 15.1429 20.07 15.3148 19.8981C15.4867 19.7262 15.5833 19.493 15.5833 19.2499V17.2516C15.9677 17.1147 16.3169 16.894 16.6054 16.6054C16.894 16.3169 17.1147 15.9677 17.2516 15.5833H19.2499C19.493 15.5833 19.7262 15.4867 19.8981 15.3148C20.07 15.1429 20.1666 14.9097 20.1666 14.6666C20.1666 14.4235 20.07 14.1903 19.8981 14.0184C19.7262 13.8465 19.493 13.7499 19.2499 13.7499H17.4166V11.9166H19.2499ZM15.5833 14.6666C15.5833 14.9097 15.4867 15.1429 15.3148 15.3148C15.1429 15.4867 14.9097 15.5833 14.6666 15.5833H7.33325C7.09014 15.5833 6.85698 15.4867 6.68507 15.3148C6.51316 15.1429 6.41659 14.9097 6.41659 14.6666V7.33325C6.41659 7.09014 6.51316 6.85698 6.68507 6.68507C6.85698 6.51316 7.09014 6.41659 7.33325 6.41659H14.6666C14.9097 6.41659 15.1429 6.51316 15.3148 6.68507C15.4867 6.85698 15.5833 7.09014 15.5833 7.33325V14.6666ZM12.8333 11.9166C12.652 11.9166 12.4747 11.9703 12.324 12.0711C12.1732 12.1718 12.0557 12.315 11.9864 12.4825C11.917 12.65 11.8988 12.8343 11.9342 13.0121C11.9696 13.1899 12.0569 13.3532 12.1851 13.4814C12.3133 13.6096 12.4766 13.6969 12.6544 13.7323C12.8322 13.7677 13.0165 13.7495 13.184 13.6801C13.3515 13.6108 13.4947 13.4933 13.5954 13.3425C13.6962 13.1918 13.7499 13.0146 13.7499 12.8333C13.7499 12.5901 13.6533 12.357 13.4814 12.1851C13.3095 12.0132 13.0764 11.9166 12.8333 11.9166Z" fill="#1B1B1B"/>
</svg>
