<svg width="22" height="22" viewBox="0 0 22 22" fill="none" xmlns="http://www.w3.org/2000/svg">
<path d="M13.5391 5.38083C13.7496 5.50034 13.9988 5.53175 14.2324 5.46821C14.4659 5.40467 14.6649 5.25134 14.7858 5.04167C14.8859 4.86508 15.0417 4.72669 15.2289 4.64821C15.4161 4.56974 15.624 4.5556 15.8201 4.60803C16.0162 4.66046 16.1893 4.77649 16.3124 4.93791C16.4354 5.09934 16.5014 5.29703 16.5 5.5C16.5 5.74311 16.4034 5.97627 16.2315 6.14818C16.0596 6.32009 15.8264 6.41667 15.5833 6.41667C15.3402 6.41667 15.107 6.51324 14.9351 6.68515C14.7632 6.85706 14.6666 7.09022 14.6666 7.33333C14.6666 7.57645 14.7632 7.80961 14.9351 7.98151C15.107 8.15342 15.3402 8.25 15.5833 8.25C16.066 8.24969 16.54 8.12236 16.9579 7.8808C17.3757 7.63924 17.7226 7.29196 17.9638 6.87385C18.2049 6.45575 18.3317 5.98155 18.3315 5.4989C18.3313 5.01625 18.2041 4.54215 17.9627 4.12424C17.7212 3.70633 17.374 3.35932 16.956 3.1181C16.5379 2.87687 16.0637 2.74992 15.5811 2.75C15.0984 2.75008 14.6243 2.87718 14.2063 3.11854C13.7884 3.3599 13.4413 3.70701 13.2 4.125C13.1394 4.22962 13.1 4.3452 13.0843 4.46508C13.0685 4.58496 13.0767 4.70677 13.1082 4.8235C13.1397 4.94023 13.194 5.04957 13.268 5.14522C13.3419 5.24087 13.4341 5.32095 13.5391 5.38083ZM17.4808 11.9167C17.2402 11.8854 16.997 11.9509 16.8045 12.0987C16.6121 12.2464 16.4861 12.4645 16.4541 12.705C16.2618 14.2589 15.5079 15.6888 14.3345 16.7255C13.161 17.7622 11.6491 18.334 10.0833 18.3333H4.95913L5.55497 17.7375C5.7257 17.5658 5.82153 17.3334 5.82153 17.0913C5.82153 16.8491 5.7257 16.6167 5.55497 16.445C4.66117 15.5477 4.0529 14.4059 3.80678 13.1636C3.56067 11.9212 3.6877 10.6338 4.1719 9.46351C4.65609 8.29321 5.47578 7.29238 6.52772 6.58707C7.57966 5.88176 8.8168 5.50352 10.0833 5.5C10.3264 5.5 10.5596 5.40342 10.7315 5.23151C10.9034 5.05961 11 4.82645 11 4.58333C11 4.34022 10.9034 4.10706 10.7315 3.93515C10.5596 3.76324 10.3264 3.66667 10.0833 3.66667C8.53343 3.67313 7.01672 4.11605 5.70695 4.94468C4.39717 5.77331 3.3473 6.95413 2.67761 8.35186C2.00792 9.7496 1.7455 11.3077 1.92042 12.8477C2.09534 14.3877 2.70052 15.8472 3.66663 17.0592L2.09913 18.5992C1.97194 18.7281 1.88577 18.8918 1.85151 19.0696C1.81725 19.2474 1.83643 19.4314 1.90663 19.5983C1.9754 19.7657 2.09218 19.909 2.24226 20.0102C2.39234 20.1113 2.56899 20.1658 2.74997 20.1667H10.0833C12.0921 20.1669 14.032 19.4343 15.5391 18.1061C17.0462 16.7779 18.0169 14.9454 18.2691 12.9525C18.2859 12.8327 18.2788 12.7107 18.2481 12.5936C18.2175 12.4765 18.164 12.3667 18.0907 12.2704C18.0175 12.1741 17.9258 12.0932 17.8211 12.0325C17.7165 11.9718 17.6008 11.9324 17.4808 11.9167ZM15.9316 9.23083C15.7647 9.157 15.5796 9.13466 15.4 9.16667L15.235 9.22167L15.07 9.30417L14.9325 9.42333C14.85 9.5078 14.7846 9.60741 14.74 9.71667C14.6858 9.83101 14.6606 9.95694 14.6666 10.0833C14.664 10.2056 14.6858 10.3271 14.7308 10.4408C14.7782 10.5508 14.8467 10.6505 14.9325 10.7342C15.0181 10.8191 15.1197 10.8863 15.2314 10.932C15.3431 10.9776 15.4627 11.0007 15.5833 11C15.8264 11 16.0596 10.9034 16.2315 10.7315C16.4034 10.5596 16.5 10.3264 16.5 10.0833C16.5031 9.96309 16.4779 9.84379 16.4266 9.735C16.3281 9.51473 16.1519 9.3385 15.9316 9.24V9.23083Z" fill="#1B1B1B"/>
</svg>
