<svg width="22" height="22" viewBox="0 0 22 22" fill="none" xmlns="http://www.w3.org/2000/svg">
<path d="M19.9009 14.2816L15.7575 10.1475C15.8433 9.72509 15.8863 9.29514 15.8859 8.86414C15.8856 7.68224 15.5873 6.51949 15.0187 5.48337C14.45 4.44725 13.6294 3.5712 12.6325 2.93619C11.6357 2.30118 10.4949 1.92771 9.31553 1.8503C8.13616 1.77289 6.95631 1.99404 5.88504 2.49331C5.74931 2.55531 5.63078 2.64951 5.53972 2.76772C5.44866 2.88593 5.38784 3.02459 5.36254 3.17164C5.33733 3.31683 5.3475 3.46595 5.39218 3.60638C5.43686 3.7468 5.51474 3.87438 5.61921 3.97831L9.60671 7.95664L7.95671 9.60664L3.97837 5.61914C3.87357 5.51629 3.74559 5.44013 3.60521 5.39706C3.46483 5.35399 3.31616 5.34527 3.17171 5.37164C3.02557 5.39602 2.88752 5.45545 2.76939 5.54486C2.65125 5.63426 2.55654 5.75096 2.49337 5.88497C1.99244 6.95977 1.77148 8.14381 1.85106 9.32693C1.93063 10.5101 2.30816 11.6538 2.94851 12.6519C3.58886 13.6499 4.47124 14.4698 5.51355 15.0352C6.55587 15.6006 7.72426 15.8932 8.91004 15.8858C9.34104 15.8862 9.77099 15.8432 10.1934 15.7575L14.3275 19.9008C14.4128 19.9867 14.5141 20.0549 14.6258 20.1015C14.7375 20.148 14.8574 20.172 14.9784 20.172C15.0994 20.172 15.2192 20.148 15.3309 20.1015C15.4426 20.0549 15.544 19.9867 15.6292 19.9008C15.7151 19.8156 15.7833 19.7142 15.8299 19.6025C15.8764 19.4908 15.9004 19.371 15.9004 19.25C15.9004 19.129 15.8764 19.0092 15.8299 18.8974C15.7833 18.7857 15.7151 18.6844 15.6292 18.5991L11.1375 14.1075C11.0253 13.996 10.8861 13.9154 10.7335 13.8737C10.5809 13.8319 10.4201 13.8303 10.2667 13.8691C9.82388 13.9865 9.36813 14.0481 8.91004 14.0525C8.22442 14.0585 7.54437 13.9289 6.90908 13.6709C6.27379 13.413 5.69581 13.032 5.20844 12.5497C4.72106 12.0674 4.33392 11.4935 4.06932 10.861C3.80472 10.2284 3.66789 9.54979 3.66671 8.86414C3.66552 8.55707 3.69005 8.25045 3.74004 7.94747L7.33337 11.55C7.41859 11.6359 7.51997 11.7041 7.63168 11.7506C7.74338 11.7972 7.86319 11.8211 7.98421 11.8211C8.10522 11.8211 8.22503 11.7972 8.33673 11.7506C8.44844 11.7041 8.54982 11.6359 8.63504 11.55L11.55 8.60747C11.7153 8.43655 11.8076 8.20812 11.8076 7.97039C11.8076 7.73266 11.7153 7.50424 11.55 7.33331L7.98421 3.73997C8.28718 3.68998 8.59381 3.66545 8.90087 3.66664C10.2777 3.66907 11.5974 4.21773 12.5701 5.19219C13.5429 6.16665 14.0892 7.48727 14.0892 8.86414C14.0848 9.32223 14.0232 9.77799 13.9059 10.2208C13.8671 10.3742 13.8686 10.535 13.9104 10.6876C13.9522 10.8402 14.0327 10.9794 14.1442 11.0916L18.6359 15.5833C18.8085 15.7559 19.0426 15.8529 19.2867 15.8529C19.5308 15.8529 19.7649 15.7559 19.9375 15.5833C20.1101 15.4107 20.2071 15.1766 20.2071 14.9325C20.2071 14.6884 20.1101 14.4543 19.9375 14.2816H19.9009Z" fill="#1B1B1B"/>
</svg>
