<svg width="74" height="36" viewBox="0 0 74 36" fill="none" xmlns="http://www.w3.org/2000/svg">
<path d="M9.95254 33.6734C6.84608 33.6639 3.64682 33.6545 0.467061 33.6616C0.208969 33.6624 0 33.8745 0 34.1356C0 34.3974 0.209749 34.6096 0.468621 34.6088C3.64058 34.6025 6.83438 34.6111 9.93929 34.6206C12.2949 34.6277 14.6832 34.6356 17.0856 34.6356C18.0025 34.6356 18.9211 34.634 19.8411 34.6316C20.0992 34.6316 20.3082 34.4187 20.3082 34.1576C20.3082 33.8942 20.0977 33.6821 19.8388 33.6829C16.5179 33.6923 13.2033 33.6829 9.95176 33.6734H9.95254Z" fill="white"/>
<path d="M0.761973 6.38514C3.56902 6.36779 6.51876 6.38593 8.88837 6.40012C10.5383 6.41116 12.5906 6.42378 14.5703 6.42378C16.3785 6.42378 18.0269 6.41195 19.6105 6.38829L19.7953 6.38514L19.8429 6.56653C20.161 7.7953 21.262 8.65417 22.5197 8.65417C24.0449 8.65417 25.2854 7.39938 25.2854 5.85672C25.2854 4.59247 24.441 3.48044 23.2316 3.15235L23.0569 3.10503V2.92205C23.0569 2.39048 23.0562 1.85891 23.0546 1.32813L23.053 0.533146C23.053 0.238969 22.816 0 22.5252 0C22.3833 0 22.2499 0.0559962 22.1501 0.156947C22.0503 0.257898 21.9957 0.391973 21.9973 0.534724C21.9981 1.32892 21.9981 2.12312 21.9981 2.91574V3.10108L21.8218 3.14683C20.8565 3.40157 20.0986 4.16501 19.8437 5.1406L19.7984 5.3149L19.6191 5.31806C15.8405 5.378 11.9894 5.35276 8.89539 5.33225L8.44159 5.32989C5.92694 5.3149 3.3273 5.29913 0.759634 5.31648C0.619281 5.31648 0.486726 5.37248 0.38614 5.47422C0.287114 5.57674 0.234092 5.71161 0.234872 5.85357C0.236431 6.14696 0.471911 6.38514 0.761193 6.38514H0.761973ZM20.809 5.85672C20.809 4.90242 21.5762 4.12636 22.5197 4.12636C23.4632 4.12636 24.2273 4.90242 24.2273 5.85672C24.2273 6.81102 23.4616 7.58314 22.5197 7.58314C21.5778 7.58314 20.809 6.80866 20.809 5.85672Z" fill="white"/>
<path d="M33.3962 8.36078C32.1416 8.36078 31.0421 9.21886 30.7217 10.4468L30.6757 10.6243H14.3652L14.3192 10.4468C13.9987 9.21886 12.8993 8.36078 11.6447 8.36078C10.3901 8.36078 9.28909 9.21886 8.96862 10.4468L8.92261 10.6243H0.758003C0.465603 10.6243 0.227783 10.864 0.227783 11.1582C0.227783 11.4524 0.465603 11.6922 0.758003 11.6922H8.92183L8.96784 11.8704C9.28597 13.0984 10.3862 13.9557 11.6439 13.9557C12.9016 13.9557 13.9979 13.0976 14.3184 11.8696L14.3644 11.6922H21.9886V15.0196C21.9886 15.3146 22.2265 15.5535 22.5189 15.5535C22.8113 15.5535 23.0467 15.3138 23.0467 15.0196V11.6922H30.6741L30.7201 11.8696C31.0406 13.0976 32.14 13.9557 33.3946 13.9557C34.9206 13.9557 36.1619 12.7009 36.1619 11.1582C36.1619 9.61557 34.9206 8.36078 33.3946 8.36078H33.3962ZM35.1046 11.1582C35.1046 12.1109 34.3381 12.8862 33.3962 12.8862C32.4542 12.8862 31.6893 12.1109 31.6893 11.1582C31.6893 10.2055 32.455 9.43023 33.3962 9.43023C34.3373 9.43023 35.1046 10.2055 35.1046 11.1582ZM13.3515 11.1582C13.3515 12.1109 12.5858 12.8862 11.6447 12.8862C10.7035 12.8862 9.93393 12.1109 9.93393 11.1582C9.93393 10.2055 10.7012 9.43023 11.6447 9.43023C12.5881 9.43023 13.3515 10.2055 13.3515 11.1582Z" fill="#F9851F"/>
<path d="M9.42468 18.4165H11.1822C11.4099 18.4165 11.5674 18.6034 11.5331 18.8337L10.206 27.7813C10.1717 28.0116 9.95957 28.1985 9.73111 28.1985H8.0118C7.89328 28.1985 7.78801 28.1472 7.72329 28.0573L3.42851 22.1146L2.58796 27.7813C2.55365 28.0116 2.34156 28.1985 2.1131 28.1985H0.355574C0.127891 28.1985 -0.0296151 28.0116 0.00469327 27.7813L1.3318 18.8337C1.36611 18.6034 1.5782 18.4165 1.80666 18.4165H4.08037C4.20045 18.4165 4.30649 18.4694 4.37121 18.5608L8.18958 23.9641L8.9506 18.8337C8.98491 18.6034 9.19699 18.4165 9.42546 18.4165H9.42468Z" fill="#F9851F"/>
<path d="M11.5237 27.7812L12.8508 18.8336C12.8852 18.6033 13.0972 18.4164 13.3257 18.4164H21.0326C21.2603 18.4164 21.4178 18.6033 21.3835 18.8336L21.1574 20.3573C21.1231 20.5876 20.911 20.7746 20.6825 20.7746H15.2789L15.0739 22.1547H19.9207C20.1484 22.1547 20.3059 22.3417 20.2716 22.572L20.0673 23.9482C20.033 24.1785 19.8209 24.3654 19.5924 24.3654H14.7456L14.5288 25.826H20.171C20.3987 25.826 20.5562 26.013 20.5219 26.2433L20.2942 27.7796C20.2599 28.0099 20.0478 28.1968 19.8193 28.1968H11.8746C11.6469 28.1968 11.4894 28.0099 11.5237 27.7796V27.7812Z" fill="#F9851F"/>
<path d="M35.3572 18.4164H37.3378C37.6153 18.4164 37.7736 18.6877 37.652 18.9567L33.6106 27.9042C33.5311 28.0793 33.3533 28.1992 33.1724 28.1992H30.7989C30.625 28.1992 30.487 28.0896 30.4519 27.9247L29.411 23.0136L26.9135 27.9247C26.8293 28.0896 26.6585 28.1992 26.4846 28.1992H24.1103C23.9294 28.1992 23.7867 28.0801 23.7594 27.9042L22.3598 18.9567C22.3177 18.6877 22.5563 18.4164 22.8347 18.4164H24.8277C25.0109 18.4164 25.1544 18.5387 25.1793 18.7169L26.0277 24.7416L29.1568 18.6885C29.241 18.5253 29.4117 18.4172 29.5841 18.4172H30.6008C30.7732 18.4172 30.9112 18.5253 30.947 18.6885L32.2812 24.7416L34.9159 18.7169C34.9939 18.5387 35.1732 18.4164 35.3565 18.4164H35.3572Z" fill="#F9851F"/>
<path d="M39.8297 28.1984H37.8866C37.6589 28.1984 37.5014 28.0115 37.5357 27.7812L38.8628 18.8336C38.8971 18.6033 39.1092 18.4164 39.3377 18.4164H41.2808C41.5084 18.4164 41.666 18.6033 41.6316 18.8336L40.3045 27.7812C40.2702 28.0115 40.0581 28.1984 39.8297 28.1984Z" fill="#F9851F"/>
<path d="M51.0812 18.4164H52.8387C53.0664 18.4164 53.2239 18.6033 53.1896 18.8336L51.8625 27.7812C51.8282 28.0115 51.6161 28.1984 51.3876 28.1984H49.6683C49.5498 28.1984 49.4445 28.1471 49.3798 28.0572L45.085 22.1145L44.2445 27.7812C44.2101 28.0115 43.9981 28.1984 43.7696 28.1984H42.0121C41.7844 28.1984 41.6269 28.0115 41.6612 27.7812L42.9883 18.8336C43.0226 18.6033 43.2347 18.4164 43.4632 18.4164H45.7369C45.8569 18.4164 45.963 18.4693 46.0277 18.5607L49.8461 23.964L50.6071 18.8336C50.6414 18.6033 50.8535 18.4164 51.082 18.4164H51.0812Z" fill="#F9851F"/>
<path d="M53.1078 27.7812L54.4349 18.8336C54.4692 18.6033 54.6813 18.4164 54.9097 18.4164H62.6159C62.8435 18.4164 63.001 18.6033 62.9667 18.8336L62.7406 20.3573C62.7063 20.5876 62.4942 20.7746 62.2658 20.7746H56.8622L56.6571 22.1547H61.504C61.7316 22.1547 61.8891 22.3417 61.8548 22.572L61.6505 23.9482C61.6162 24.1785 61.4042 24.3654 61.1757 24.3654H56.3289L56.1121 25.826H61.7542C61.9819 25.826 62.1394 26.013 62.1051 26.2433L61.8774 27.7796C61.8431 28.0099 61.6311 28.1968 61.4026 28.1968H53.4579C53.2302 28.1968 53.0727 28.0099 53.107 27.7796L53.1078 27.7812Z" fill="#F9851F"/>
<path d="M72.2924 28.1984H69.9774C69.8339 28.1984 69.7123 28.1235 69.6553 28.0004L68.2222 24.9017L65.883 27.9989C65.7894 28.1227 65.6452 28.1976 65.5017 28.1976H63.1874C62.8584 28.1976 62.7165 27.8277 62.9387 27.5501L66.421 23.199L64.2752 19.0663C64.1309 18.7887 64.3828 18.4148 64.7142 18.4148H67.0463C67.189 18.4148 67.3107 18.489 67.3676 18.612L68.7337 21.5372L70.9544 18.6128C71.0479 18.4898 71.1922 18.4148 71.3349 18.4148H73.6437C73.9735 18.4148 74.1154 18.7871 73.8901 19.0647L70.5403 23.199L72.7322 27.5501C72.8718 27.8277 72.6207 28.1976 72.2916 28.1976L72.2924 28.1984Z" fill="#F9851F"/>
<path d="M25.3758 32.5316C25.6308 32.6901 25.8164 32.9101 25.9333 33.1917C26.0503 33.4732 26.0823 33.7919 26.0292 34.1468C25.9762 34.5017 25.8499 34.8203 25.6495 35.1019C25.4491 35.3834 25.198 35.6035 24.8963 35.762C24.5945 35.9205 24.2678 36.0002 23.9169 36.0002C23.6035 36.0002 23.3282 35.9457 23.0935 35.8361C22.9173 35.7541 22.7684 35.6445 22.6467 35.5072C22.5797 35.4315 22.6023 35.3038 22.6928 35.2288L22.9766 34.9946C23.0584 34.9268 23.1692 34.9268 23.2331 34.993C23.428 35.1933 23.6776 35.2935 23.9817 35.2935C24.2413 35.2935 24.4729 35.217 24.6764 35.0632C24.8043 34.967 24.9103 34.8495 24.9938 34.7107C25.0694 34.5861 24.9938 34.4433 24.8573 34.4433H23.8725C23.7672 34.4433 23.6947 34.3573 23.7103 34.2509L23.747 34.0009C23.7625 33.8944 23.8608 33.8084 23.9661 33.8084H24.9298C25.0748 33.8084 25.1895 33.6515 25.1396 33.5221C25.0943 33.4046 25.0265 33.3045 24.936 33.2201C24.7785 33.0734 24.5743 33 24.3208 33C24.0167 33 23.7376 33.1002 23.4834 33.3013C23.4 33.3668 23.2893 33.3675 23.2277 33.2997L23.0132 33.0655C22.9454 32.9906 22.9602 32.8628 23.0499 32.7871C23.2121 32.6499 23.3937 32.5402 23.5941 32.4582C23.8616 32.3494 24.1524 32.2942 24.4659 32.2942C24.8168 32.2942 25.1193 32.3738 25.3743 32.5323L25.3758 32.5316Z" fill="white"/>
<path d="M29.9668 32.548L29.4927 35.746C29.4771 35.8525 29.3789 35.9385 29.2736 35.9385H28.8448C28.7395 35.9385 28.667 35.8525 28.6826 35.746L29.0569 33.2231C29.0725 33.1166 28.9999 33.0306 28.8947 33.0306H28.0541C27.9512 33.0306 27.8553 33.1126 27.8366 33.2168L27.7344 33.7783C27.6424 34.287 27.5403 34.6987 27.4296 35.0149C27.3188 35.3304 27.1754 35.5733 27.0007 35.7421C26.8253 35.9109 26.603 35.9953 26.3332 35.9953C26.2639 35.9953 26.1859 35.9882 26.1001 35.9732C26.0065 35.9574 25.952 35.8675 25.9738 35.7697L26.0907 35.2381C26.1329 35.2515 26.1804 35.2586 26.2342 35.2586C26.4299 35.2586 26.5835 35.1419 26.6958 34.9077C26.8081 34.6742 26.911 34.3075 27.0054 33.8098L27.2377 32.5416C27.2565 32.4383 27.3531 32.3555 27.4553 32.3555H29.8038C29.9091 32.3555 29.9816 32.4415 29.966 32.548H29.9668Z" fill="white"/>
<path d="M33.1631 35.4661L33.1217 35.7468C33.1061 35.8533 33.0079 35.9393 32.9026 35.9393H30.54C30.4348 35.9393 30.3622 35.8533 30.3778 35.7468L30.8519 32.5487C30.8675 32.4423 30.9658 32.3563 31.071 32.3563H33.3673C33.4726 32.3563 33.5451 32.4423 33.5295 32.5487L33.4882 32.8287C33.4726 32.9352 33.3744 33.0212 33.2691 33.0212H31.7876C31.6823 33.0212 31.5841 33.1071 31.5685 33.2136L31.51 33.6064C31.4944 33.7128 31.5669 33.7988 31.6722 33.7988H32.9362C33.0414 33.7988 33.1139 33.8848 33.0983 33.9912L33.0601 34.2515C33.0445 34.358 32.9463 34.4439 32.841 34.4439H31.5771C31.4718 34.4439 31.3736 34.5299 31.358 34.6364L31.2925 35.0804C31.2769 35.1869 31.3494 35.2728 31.4547 35.2728H33.0024C33.1077 35.2728 33.1802 35.3588 33.1646 35.4653L33.1631 35.4661Z" fill="white"/>
<path d="M35.068 34.4952H34.7951C34.6898 34.4952 34.5916 34.5812 34.576 34.6876L34.4193 35.746C34.4037 35.8525 34.3054 35.9385 34.2002 35.9385H33.7659C33.6606 35.9385 33.5881 35.8525 33.6037 35.746L34.0778 32.548C34.0933 32.4415 34.1916 32.3555 34.2969 32.3555H34.7312C34.8364 32.3555 34.909 32.4415 34.8934 32.548L34.7358 33.6119C34.7203 33.7183 34.7928 33.8043 34.898 33.8043H35.1912C35.2559 33.8043 35.3207 33.7712 35.3635 33.7168L36.371 32.4431C36.4138 32.3886 36.4793 32.3555 36.5433 32.3555H36.9464C37.0992 32.3555 37.1639 32.5282 37.0595 32.656L35.9764 33.9794C35.9242 34.0433 35.9109 34.1277 35.9429 34.1923L36.6618 35.6404C36.7257 35.7681 36.6096 35.9385 36.4583 35.9385H35.9819C35.9171 35.9385 35.8618 35.9054 35.8353 35.8501L35.2146 34.5827C35.1873 34.5275 35.1327 34.4944 35.068 34.4944V34.4952Z" fill="white"/>
<path d="M40.2727 33.0306H39.5202C39.415 33.0306 39.3167 33.1166 39.3011 33.2231L38.9269 35.746C38.9113 35.8525 38.813 35.9385 38.7078 35.9385H38.2789C38.1736 35.9385 38.1011 35.8525 38.1167 35.746L38.491 33.2231C38.5066 33.1166 38.4341 33.0306 38.3288 33.0306H37.581C37.4758 33.0306 37.4033 32.9447 37.4189 32.8382L37.4617 32.548C37.4773 32.4415 37.5756 32.3555 37.6808 32.3555H40.3725C40.4778 32.3555 40.5503 32.4415 40.5347 32.548L40.4918 32.8382C40.4762 32.9447 40.378 33.0306 40.2727 33.0306Z" fill="white"/>
<path d="M43.4073 32.5141C43.6225 32.6197 43.7784 32.7704 43.8743 32.9644C43.9702 33.1592 43.9983 33.3895 43.9593 33.6553C43.9203 33.9179 43.8236 34.1474 43.67 34.3438C43.5164 34.5402 43.316 34.69 43.0696 34.7941C42.8232 34.8982 42.5425 34.9503 42.2291 34.9503H41.7059C41.6006 34.9503 41.5024 35.0362 41.4868 35.1427L41.3971 35.7453C41.3815 35.8517 41.2833 35.9377 41.178 35.9377H40.739C40.6337 35.9377 40.5612 35.8517 40.5768 35.7453L41.0509 32.5472C41.0665 32.4407 41.1647 32.3547 41.27 32.3547H42.6135C42.9269 32.3547 43.192 32.4076 43.4073 32.5133V32.5141ZM42.8692 34.1135C43.0135 34.0062 43.1 33.8532 43.1297 33.6553C43.1593 33.4573 43.118 33.2996 43.0057 33.1915C42.8934 33.0843 42.7141 33.0306 42.4677 33.0306H41.9897C41.8844 33.0306 41.7862 33.1166 41.7706 33.2231L41.6435 34.0819C41.6279 34.1884 41.7004 34.2744 41.8057 34.2744H42.2837C42.5301 34.2744 42.725 34.2207 42.8692 34.1127V34.1135Z" fill="white"/>
<path d="M44.9356 35.7595C44.6642 35.5994 44.4654 35.3777 44.3406 35.0962C44.2151 34.8146 44.1792 34.4984 44.2307 34.1466C44.2829 33.7949 44.4132 33.4786 44.6221 33.197C44.8311 32.9155 45.0946 32.6947 45.4143 32.5338C45.7332 32.3737 46.0763 32.2932 46.4444 32.2932C46.8124 32.2932 47.1305 32.3737 47.4003 32.5338C47.6701 32.6939 47.8682 32.9155 47.9953 33.197C48.1224 33.4786 48.1598 33.7949 48.1075 34.1466C48.0553 34.4984 47.9243 34.8146 47.7138 35.0962C47.5032 35.3777 47.2397 35.5986 46.9223 35.7595C46.605 35.9196 46.2627 36 45.8947 36C45.5266 36 45.2069 35.9196 44.9356 35.7595ZM46.5878 35.1474C46.7711 35.0504 46.9239 34.9148 47.0455 34.7405C47.1672 34.5662 47.2452 34.3682 47.2779 34.1466C47.3106 33.925 47.2919 33.727 47.2218 33.5527C47.1516 33.3784 47.0393 33.2428 46.8849 33.1458C46.7305 33.0488 46.5488 32.9999 46.3399 32.9999C46.1309 32.9999 45.9344 33.0488 45.7512 33.1458C45.5679 33.2428 45.4151 33.3784 45.2935 33.5527C45.1718 33.727 45.0939 33.925 45.0611 34.1466C45.0284 34.3682 45.0471 34.5662 45.1173 34.7405C45.1874 34.9148 45.2997 35.0504 45.4541 35.1474C45.6085 35.2444 45.7902 35.2933 45.9991 35.2933C46.2081 35.2933 46.4046 35.2444 46.5878 35.1474Z" fill="white"/>
<path d="M51.3723 33.0306H50.6199C50.5146 33.0306 50.4163 33.1166 50.4007 33.2231L50.0265 35.746C50.0109 35.8525 49.9126 35.9385 49.8074 35.9385H49.3785C49.2733 35.9385 49.2007 35.8525 49.2163 35.746L49.5906 33.2231C49.6062 33.1166 49.5337 33.0306 49.4284 33.0306H48.6807C48.5754 33.0306 48.5029 32.9447 48.5185 32.8382L48.5614 32.548C48.5769 32.4415 48.6752 32.3555 48.7805 32.3555H51.4721C51.5774 32.3555 51.6499 32.4415 51.6343 32.548L51.5914 32.8382C51.5758 32.9447 51.4776 33.0306 51.3723 33.0306Z" fill="white"/>
<path d="M54.4614 35.4661L54.4201 35.7468C54.4045 35.8533 54.3062 35.9393 54.201 35.9393H51.8384C51.7331 35.9393 51.6606 35.8533 51.6762 35.7468L52.1503 32.5487C52.1659 32.4423 52.2641 32.3563 52.3694 32.3563H54.6657C54.771 32.3563 54.8435 32.4423 54.8279 32.5487L54.7865 32.8287C54.771 32.9352 54.6727 33.0212 54.5674 33.0212H53.0859C52.9807 33.0212 52.8824 33.1071 52.8668 33.2136L52.8084 33.6064C52.7928 33.7128 52.8653 33.7988 52.9705 33.7988H54.2345C54.3398 33.7988 54.4123 33.8848 54.3967 33.9912L54.3585 34.2515C54.3429 34.358 54.2446 34.4439 54.1394 34.4439H52.8754C52.7702 34.4439 52.6719 34.5299 52.6563 34.6364L52.5908 35.0804C52.5752 35.1869 52.6477 35.2728 52.753 35.2728H54.3008C54.406 35.2728 54.4786 35.3588 54.463 35.4653L54.4614 35.4661Z" fill="white"/>
<path d="M56.2323 32.4391L56.6385 33.2081C56.6978 33.3201 56.8607 33.3201 56.9527 33.2081L57.5867 32.4391C57.6296 32.3863 57.6935 32.3555 57.7567 32.3555H58.2534C58.407 32.3555 58.4717 32.5306 58.3649 32.6584L57.2756 33.9613C57.2202 34.0275 57.2077 34.1143 57.2428 34.1805L58.021 35.6372C58.0896 35.765 57.9726 35.9393 57.8198 35.9393H57.3145C57.2522 35.9393 57.1991 35.9085 57.1711 35.8572L56.69 34.9771C56.6299 34.8675 56.4693 34.8682 56.3773 34.9779L55.6444 35.8565C55.6015 35.9085 55.5383 35.9393 55.4759 35.9393H54.9941C54.8404 35.9393 54.7757 35.7642 54.8826 35.6364L56.074 34.216C56.1294 34.1505 56.1426 34.063 56.1075 33.9968L55.4003 32.6568C55.3325 32.529 55.4486 32.3555 55.6023 32.3555H56.0872C56.1504 32.3555 56.2042 32.3871 56.2323 32.4391Z" fill="white"/>
<path d="M62.3143 32.548L61.8402 35.746C61.8246 35.8525 61.7264 35.9385 61.6211 35.9385H61.1821C61.0769 35.9385 61.0044 35.8525 61.0199 35.746L61.1806 34.6616C61.1962 34.5551 61.1236 34.4692 61.0184 34.4692H59.7895C59.6843 34.4692 59.586 34.5551 59.5704 34.6616L59.4098 35.746C59.3942 35.8525 59.2959 35.9385 59.1907 35.9385H58.7517C58.6464 35.9385 58.5739 35.8525 58.5895 35.746L59.0636 32.548C59.0792 32.4415 59.1774 32.3555 59.2827 32.3555H59.7217C59.8269 32.3555 59.8995 32.4415 59.8839 32.548L59.7318 33.5756C59.7162 33.6821 59.7887 33.768 59.894 33.768H61.1229C61.2281 33.768 61.3264 33.6821 61.342 33.5756L61.494 32.548C61.5096 32.4415 61.6079 32.3555 61.7131 32.3555H62.1521C62.2574 32.3555 62.3299 32.4415 62.3143 32.548Z" fill="white"/>
<path d="M63.4192 32.3555H63.8519C63.9572 32.3555 64.0305 32.4423 64.0141 32.5487L63.7841 34.0993C63.756 34.2862 63.9806 34.3643 64.1123 34.2136L65.664 32.4352C65.7077 32.3855 65.7693 32.3563 65.8301 32.3563H66.3112C66.4165 32.3563 66.4898 32.4431 66.4734 32.5495L65.9993 35.7468C65.9837 35.8533 65.8855 35.9401 65.7794 35.9401H65.3521C65.2469 35.9401 65.1736 35.8533 65.1899 35.7468L65.4192 34.201C65.4472 34.0141 65.2227 33.936 65.0909 34.0867L63.54 35.8612C63.4963 35.9109 63.4347 35.9401 63.3739 35.9401H62.8874C62.7821 35.9401 62.7088 35.8533 62.7252 35.7468L63.1993 32.5495C63.2149 32.4431 63.3131 32.3563 63.4192 32.3563V32.3555Z" fill="white"/>
<path d="M68.3337 34.4952H68.0624C67.9571 34.4952 67.8581 34.582 67.8425 34.6884L67.6858 35.7453C67.6702 35.8517 67.5719 35.9385 67.4659 35.9385H67.0331C66.9279 35.9385 66.8546 35.8517 66.8709 35.7453L67.345 32.548C67.3606 32.4415 67.4589 32.3547 67.5649 32.3547H67.9977C68.1029 32.3547 68.1762 32.4415 68.1598 32.548L68.0023 33.6103C67.9867 33.7168 68.0593 33.8035 68.1645 33.8035H68.4569C68.5216 33.8035 68.5871 33.7704 68.63 33.716L69.6367 32.4431C69.6803 32.3879 69.745 32.3555 69.8098 32.3555H70.2113C70.3649 32.3555 70.4297 32.529 70.3252 32.6576L69.2437 33.9802C69.1907 34.0449 69.1774 34.1293 69.2101 34.1939L69.9283 35.6404C69.9922 35.7689 69.8753 35.9393 69.724 35.9393H69.2491C69.1844 35.9393 69.1291 35.9062 69.1018 35.8509L68.4811 34.5843C68.4538 34.5291 68.3984 34.496 68.3337 34.496V34.4952Z" fill="white"/>
<path d="M72.7751 35.1711H71.3856C71.3084 35.1711 71.2312 35.2184 71.1915 35.2902L70.8967 35.8194C70.8562 35.892 70.7798 35.9385 70.7026 35.9385H70.2846C70.1466 35.9385 70.0749 35.7942 70.1505 35.6664L72.0336 32.4691C72.0749 32.3997 72.1498 32.3547 72.2254 32.3547H72.7876C72.8632 32.3547 72.9248 32.3997 72.9451 32.4691L73.8847 35.6664C73.9221 35.7942 73.8083 35.9385 73.6695 35.9385H73.232C73.1548 35.9385 73.0917 35.8912 73.073 35.8194L72.935 35.2902C72.9162 35.2176 72.8531 35.1711 72.7759 35.1711H72.7751ZM72.6683 34.2744L72.4921 33.6008C72.4507 33.4415 72.2277 33.4415 72.1389 33.6008L71.763 34.2744C71.6921 34.4014 71.763 34.5417 71.9003 34.5417H72.4515C72.588 34.5417 72.701 34.4014 72.6675 34.2744H72.6683Z" fill="white"/>
</svg>
