<svg width="98" height="98" viewBox="0 0 98 98" fill="none" xmlns="http://www.w3.org/2000/svg">
<g clip-path="url(#clip0_23_4089)">
<path d="M98 0H0V98H98V0Z" fill="white"/>
<path d="M26.3644 4.78027H23.9025V7.24222H26.3644V4.78027Z" fill="black"/>
<path d="M28.7547 4.78027H26.2927V7.24222H28.7547V4.78027Z" fill="black"/>
<path d="M31.1449 4.78027H28.683V7.24222H31.1449V4.78027Z" fill="black"/>
<path d="M38.3156 4.78027H35.8536V7.24222H38.3156V4.78027Z" fill="black"/>
<path d="M43.0961 4.78027H40.6342V7.24222H43.0961V4.78027Z" fill="black"/>
<path d="M45.4864 4.78027H43.0244V7.24222H45.4864V4.78027Z" fill="black"/>
<path d="M47.8766 4.78027H45.4147V7.24222H47.8766V4.78027Z" fill="black"/>
<path d="M52.6571 4.78027H50.1952V7.24222H52.6571V4.78027Z" fill="black"/>
<path d="M55.0474 4.78027H52.5854V7.24222H55.0474V4.78027Z" fill="black"/>
<path d="M59.8278 4.78027H57.3658V7.24222H59.8278V4.78027Z" fill="black"/>
<path d="M62.2181 4.78027H59.7561V7.24222H62.2181V4.78027Z" fill="black"/>
<path d="M74.1693 4.78027H71.7074V7.24222H74.1693V4.78027Z" fill="black"/>
<path d="M26.3644 7.17041H23.9025V9.63236H26.3644V7.17041Z" fill="black"/>
<path d="M28.7547 7.17041H26.2927V9.63236H28.7547V7.17041Z" fill="black"/>
<path d="M31.1449 7.17041H28.683V9.63236H31.1449V7.17041Z" fill="black"/>
<path d="M35.9255 7.17041H33.4635V9.63236H35.9255V7.17041Z" fill="black"/>
<path d="M43.0961 7.17041H40.6342V9.63236H43.0961V7.17041Z" fill="black"/>
<path d="M55.0474 7.17041H52.5854V9.63236H55.0474V7.17041Z" fill="black"/>
<path d="M64.6083 7.17041H62.1464V9.63236H64.6083V7.17041Z" fill="black"/>
<path d="M66.9986 7.17041H64.5366V9.63236H66.9986V7.17041Z" fill="black"/>
<path d="M71.7791 7.17041H69.3171V9.63236H71.7791V7.17041Z" fill="black"/>
<path d="M74.1693 7.17041H71.7074V9.63236H74.1693V7.17041Z" fill="black"/>
<path d="M26.3644 9.56055H23.9025V12.0225H26.3644V9.56055Z" fill="black"/>
<path d="M31.1449 9.56055H28.683V12.0225H31.1449V9.56055Z" fill="black"/>
<path d="M33.5352 9.56055H31.0732V12.0225H33.5352V9.56055Z" fill="black"/>
<path d="M35.9255 9.56055H33.4635V12.0225H35.9255V9.56055Z" fill="black"/>
<path d="M38.3156 9.56055H35.8536V12.0225H38.3156V9.56055Z" fill="black"/>
<path d="M40.7058 9.56055H38.2439V12.0225H40.7058V9.56055Z" fill="black"/>
<path d="M47.8766 9.56055H45.4147V12.0225H47.8766V9.56055Z" fill="black"/>
<path d="M50.2669 9.56055H47.8049V12.0225H50.2669V9.56055Z" fill="black"/>
<path d="M59.8278 9.56055H57.3658V12.0225H59.8278V9.56055Z" fill="black"/>
<path d="M74.1693 9.56055H71.7074V12.0225H74.1693V9.56055Z" fill="black"/>
<path d="M31.1449 11.9512H28.683V14.4131H31.1449V11.9512Z" fill="black"/>
<path d="M33.5352 11.9512H31.0732V14.4131H33.5352V11.9512Z" fill="black"/>
<path d="M43.0961 11.9512H40.6342V14.4131H43.0961V11.9512Z" fill="black"/>
<path d="M45.4864 11.9512H43.0244V14.4131H45.4864V11.9512Z" fill="black"/>
<path d="M47.8766 11.9512H45.4147V14.4131H47.8766V11.9512Z" fill="black"/>
<path d="M57.4375 11.9512H54.9756V14.4131H57.4375V11.9512Z" fill="black"/>
<path d="M62.2181 11.9512H59.7561V14.4131H62.2181V11.9512Z" fill="black"/>
<path d="M64.6083 11.9512H62.1464V14.4131H64.6083V11.9512Z" fill="black"/>
<path d="M66.9986 11.9512H64.5366V14.4131H66.9986V11.9512Z" fill="black"/>
<path d="M69.3888 11.9512H66.9269V14.4131H69.3888V11.9512Z" fill="black"/>
<path d="M71.7791 11.9512H69.3171V14.4131H71.7791V11.9512Z" fill="black"/>
<path d="M74.1693 11.9512H71.7074V14.4131H74.1693V11.9512Z" fill="black"/>
<path d="M33.5352 14.3413H31.0732V16.8033H33.5352V14.3413Z" fill="black"/>
<path d="M35.9255 14.3413H33.4635V16.8033H35.9255V14.3413Z" fill="black"/>
<path d="M43.0961 14.3413H40.6342V16.8033H43.0961V14.3413Z" fill="black"/>
<path d="M47.8766 14.3413H45.4147V16.8033H47.8766V14.3413Z" fill="black"/>
<path d="M50.2669 14.3413H47.8049V16.8033H50.2669V14.3413Z" fill="black"/>
<path d="M52.6571 14.3413H50.1952V16.8033H52.6571V14.3413Z" fill="black"/>
<path d="M57.4375 14.3413H54.9756V16.8033H57.4375V14.3413Z" fill="black"/>
<path d="M59.8278 14.3413H57.3658V16.8033H59.8278V14.3413Z" fill="black"/>
<path d="M66.9986 14.3413H64.5366V16.8033H66.9986V14.3413Z" fill="black"/>
<path d="M74.1693 14.3413H71.7074V16.8033H74.1693V14.3413Z" fill="black"/>
<path d="M26.3644 16.7314H23.9025V19.1934H26.3644V16.7314Z" fill="black"/>
<path d="M28.7547 16.7314H26.2927V19.1934H28.7547V16.7314Z" fill="black"/>
<path d="M31.1449 16.7314H28.683V19.1934H31.1449V16.7314Z" fill="black"/>
<path d="M33.5352 16.7314H31.0732V19.1934H33.5352V16.7314Z" fill="black"/>
<path d="M35.9255 16.7314H33.4635V19.1934H35.9255V16.7314Z" fill="black"/>
<path d="M40.7058 16.7314H38.2439V19.1934H40.7058V16.7314Z" fill="black"/>
<path d="M43.0961 16.7314H40.6342V19.1934H43.0961V16.7314Z" fill="black"/>
<path d="M45.4864 16.7314H43.0244V19.1934H45.4864V16.7314Z" fill="black"/>
<path d="M50.2669 16.7314H47.8049V19.1934H50.2669V16.7314Z" fill="black"/>
<path d="M57.4375 16.7314H54.9756V19.1934H57.4375V16.7314Z" fill="black"/>
<path d="M59.8278 16.7314H57.3658V19.1934H59.8278V16.7314Z" fill="black"/>
<path d="M62.2181 16.7314H59.7561V19.1934H62.2181V16.7314Z" fill="black"/>
<path d="M66.9986 16.7314H64.5366V19.1934H66.9986V16.7314Z" fill="black"/>
<path d="M69.3888 16.7314H66.9269V19.1934H69.3888V16.7314Z" fill="black"/>
<path d="M71.7791 16.7314H69.3171V19.1934H71.7791V16.7314Z" fill="black"/>
<path d="M26.3644 19.1216H23.9025V21.5835H26.3644V19.1216Z" fill="black"/>
<path d="M31.1449 19.1216H28.683V21.5835H31.1449V19.1216Z" fill="black"/>
<path d="M35.9255 19.1216H33.4635V21.5835H35.9255V19.1216Z" fill="black"/>
<path d="M40.7058 19.1216H38.2439V21.5835H40.7058V19.1216Z" fill="black"/>
<path d="M45.4864 19.1216H43.0244V21.5835H45.4864V19.1216Z" fill="black"/>
<path d="M50.2669 19.1216H47.8049V21.5835H50.2669V19.1216Z" fill="black"/>
<path d="M55.0474 19.1216H52.5854V21.5835H55.0474V19.1216Z" fill="black"/>
<path d="M59.8278 19.1216H57.3658V21.5835H59.8278V19.1216Z" fill="black"/>
<path d="M64.6083 19.1216H62.1464V21.5835H64.6083V19.1216Z" fill="black"/>
<path d="M69.3888 19.1216H66.9269V21.5835H69.3888V19.1216Z" fill="black"/>
<path d="M74.1693 19.1216H71.7074V21.5835H74.1693V19.1216Z" fill="black"/>
<path d="M26.3644 21.5122H23.9025V23.9742H26.3644V21.5122Z" fill="black"/>
<path d="M28.7547 21.5122H26.2927V23.9742H28.7547V21.5122Z" fill="black"/>
<path d="M31.1449 21.5122H28.683V23.9742H31.1449V21.5122Z" fill="black"/>
<path d="M38.3156 21.5122H35.8536V23.9742H38.3156V21.5122Z" fill="black"/>
<path d="M47.8766 21.5122H45.4147V23.9742H47.8766V21.5122Z" fill="black"/>
<path d="M50.2669 21.5122H47.8049V23.9742H50.2669V21.5122Z" fill="black"/>
<path d="M52.6571 21.5122H50.1952V23.9742H52.6571V21.5122Z" fill="black"/>
<path d="M55.0474 21.5122H52.5854V23.9742H55.0474V21.5122Z" fill="black"/>
<path d="M57.4375 21.5122H54.9756V23.9742H57.4375V21.5122Z" fill="black"/>
<path d="M62.2181 21.5122H59.7561V23.9742H62.2181V21.5122Z" fill="black"/>
<path d="M64.6083 21.5122H62.1464V23.9742H64.6083V21.5122Z" fill="black"/>
<path d="M66.9986 21.5122H64.5366V23.9742H66.9986V21.5122Z" fill="black"/>
<path d="M12.023 23.9023H9.56104V26.3643H12.023V23.9023Z" fill="black"/>
<path d="M14.4132 23.9023H11.9513V26.3643H14.4132V23.9023Z" fill="black"/>
<path d="M16.8035 23.9023H14.3416V26.3643H16.8035V23.9023Z" fill="black"/>
<path d="M21.5839 23.9023H19.1219V26.3643H21.5839V23.9023Z" fill="black"/>
<path d="M26.3644 23.9023H23.9025V26.3643H26.3644V23.9023Z" fill="black"/>
<path d="M31.1449 23.9023H28.683V26.3643H31.1449V23.9023Z" fill="black"/>
<path d="M35.9255 23.9023H33.4635V26.3643H35.9255V23.9023Z" fill="black"/>
<path d="M38.3156 23.9023H35.8536V26.3643H38.3156V23.9023Z" fill="black"/>
<path d="M40.7058 23.9023H38.2439V26.3643H40.7058V23.9023Z" fill="black"/>
<path d="M45.4864 23.9023H43.0244V26.3643H45.4864V23.9023Z" fill="black"/>
<path d="M57.4375 23.9023H54.9756V26.3643H57.4375V23.9023Z" fill="black"/>
<path d="M62.2181 23.9023H59.7561V26.3643H62.2181V23.9023Z" fill="black"/>
<path d="M64.6083 23.9023H62.1464V26.3643H64.6083V23.9023Z" fill="black"/>
<path d="M69.3888 23.9023H66.9269V26.3643H69.3888V23.9023Z" fill="black"/>
<path d="M76.5595 23.9023H74.0975V26.3643H76.5595V23.9023Z" fill="black"/>
<path d="M78.9497 23.9023H76.4878V26.3643H78.9497V23.9023Z" fill="black"/>
<path d="M81.34 23.9023H78.8781V26.3643H81.34V23.9023Z" fill="black"/>
<path d="M88.5108 23.9023H86.0488V26.3643H88.5108V23.9023Z" fill="black"/>
<path d="M90.901 23.9023H88.4391V26.3643H90.901V23.9023Z" fill="black"/>
<path d="M93.2913 23.9023H90.8293V26.3643H93.2913V23.9023Z" fill="black"/>
<path d="M7.24247 26.2925H4.78052V28.7544H7.24247V26.2925Z" fill="black"/>
<path d="M19.1936 26.2925H16.7317V28.7544H19.1936V26.2925Z" fill="black"/>
<path d="M28.7547 26.2925H26.2927V28.7544H28.7547V26.2925Z" fill="black"/>
<path d="M31.1449 26.2925H28.683V28.7544H31.1449V26.2925Z" fill="black"/>
<path d="M33.5352 26.2925H31.0732V28.7544H33.5352V26.2925Z" fill="black"/>
<path d="M38.3156 26.2925H35.8536V28.7544H38.3156V26.2925Z" fill="black"/>
<path d="M47.8766 26.2925H45.4147V28.7544H47.8766V26.2925Z" fill="black"/>
<path d="M52.6571 26.2925H50.1952V28.7544H52.6571V26.2925Z" fill="black"/>
<path d="M57.4375 26.2925H54.9756V28.7544H57.4375V26.2925Z" fill="black"/>
<path d="M62.2181 26.2925H59.7561V28.7544H62.2181V26.2925Z" fill="black"/>
<path d="M64.6083 26.2925H62.1464V28.7544H64.6083V26.2925Z" fill="black"/>
<path d="M71.7791 26.2925H69.3171V28.7544H71.7791V26.2925Z" fill="black"/>
<path d="M81.34 26.2925H78.8781V28.7544H81.34V26.2925Z" fill="black"/>
<path d="M88.5108 26.2925H86.0488V28.7544H88.5108V26.2925Z" fill="black"/>
<path d="M7.24247 28.6826H4.78052V31.1446H7.24247V28.6826Z" fill="black"/>
<path d="M9.63273 28.6826H7.17078V31.1446H9.63273V28.6826Z" fill="black"/>
<path d="M12.023 28.6826H9.56104V31.1446H12.023V28.6826Z" fill="black"/>
<path d="M16.8035 28.6826H14.3416V31.1446H16.8035V28.6826Z" fill="black"/>
<path d="M19.1936 28.6826H16.7317V31.1446H19.1936V28.6826Z" fill="black"/>
<path d="M21.5839 28.6826H19.1219V31.1446H21.5839V28.6826Z" fill="black"/>
<path d="M33.5352 28.6826H31.0732V31.1446H33.5352V28.6826Z" fill="black"/>
<path d="M35.9255 28.6826H33.4635V31.1446H35.9255V28.6826Z" fill="black"/>
<path d="M40.7058 28.6826H38.2439V31.1446H40.7058V28.6826Z" fill="black"/>
<path d="M43.0961 28.6826H40.6342V31.1446H43.0961V28.6826Z" fill="black"/>
<path d="M50.2669 28.6826H47.8049V31.1446H50.2669V28.6826Z" fill="black"/>
<path d="M62.2181 28.6826H59.7561V31.1446H62.2181V28.6826Z" fill="black"/>
<path d="M66.9986 28.6826H64.5366V31.1446H66.9986V28.6826Z" fill="black"/>
<path d="M71.7791 28.6826H69.3171V31.1446H71.7791V28.6826Z" fill="black"/>
<path d="M74.1693 28.6826H71.7074V31.1446H74.1693V28.6826Z" fill="black"/>
<path d="M76.5595 28.6826H74.0975V31.1446H76.5595V28.6826Z" fill="black"/>
<path d="M81.34 28.6826H78.8781V31.1446H81.34V28.6826Z" fill="black"/>
<path d="M83.7303 28.6826H81.2683V31.1446H83.7303V28.6826Z" fill="black"/>
<path d="M93.2913 28.6826H90.8293V31.1446H93.2913V28.6826Z" fill="black"/>
<path d="M12.023 31.0728H9.56104V33.5347H12.023V31.0728Z" fill="black"/>
<path d="M19.1936 31.0728H16.7317V33.5347H19.1936V31.0728Z" fill="black"/>
<path d="M23.9742 31.0728H21.5122V33.5347H23.9742V31.0728Z" fill="black"/>
<path d="M26.3644 31.0728H23.9025V33.5347H26.3644V31.0728Z" fill="black"/>
<path d="M28.7547 31.0728H26.2927V33.5347H28.7547V31.0728Z" fill="black"/>
<path d="M33.5352 31.0728H31.0732V33.5347H33.5352V31.0728Z" fill="black"/>
<path d="M43.0961 31.0728H40.6342V33.5347H43.0961V31.0728Z" fill="black"/>
<path d="M47.8766 31.0728H45.4147V33.5347H47.8766V31.0728Z" fill="black"/>
<path d="M52.6571 31.0728H50.1952V33.5347H52.6571V31.0728Z" fill="black"/>
<path d="M55.0474 31.0728H52.5854V33.5347H55.0474V31.0728Z" fill="black"/>
<path d="M59.8278 31.0728H57.3658V33.5347H59.8278V31.0728Z" fill="black"/>
<path d="M69.3888 31.0728H66.9269V33.5347H69.3888V31.0728Z" fill="black"/>
<path d="M71.7791 31.0728H69.3171V33.5347H71.7791V31.0728Z" fill="black"/>
<path d="M74.1693 31.0728H71.7074V33.5347H74.1693V31.0728Z" fill="black"/>
<path d="M78.9497 31.0728H76.4878V33.5347H78.9497V31.0728Z" fill="black"/>
<path d="M81.34 31.0728H78.8781V33.5347H81.34V31.0728Z" fill="black"/>
<path d="M83.7303 31.0728H81.2683V33.5347H83.7303V31.0728Z" fill="black"/>
<path d="M86.1205 31.0728H83.6586V33.5347H86.1205V31.0728Z" fill="black"/>
<path d="M93.2913 31.0728H90.8293V33.5347H93.2913V31.0728Z" fill="black"/>
<path d="M12.023 33.4634H9.56104V35.9253H12.023V33.4634Z" fill="black"/>
<path d="M21.5839 33.4634H19.1219V35.9253H21.5839V33.4634Z" fill="black"/>
<path d="M35.9255 33.4634H33.4635V35.9253H35.9255V33.4634Z" fill="black"/>
<path d="M38.3156 33.4634H35.8536V35.9253H38.3156V33.4634Z" fill="black"/>
<path d="M45.4864 33.4634H43.0244V35.9253H45.4864V33.4634Z" fill="black"/>
<path d="M47.8766 33.4634H45.4147V35.9253H47.8766V33.4634Z" fill="black"/>
<path d="M50.2669 33.4634H47.8049V35.9253H50.2669V33.4634Z" fill="black"/>
<path d="M55.0474 33.4634H52.5854V35.9253H55.0474V33.4634Z" fill="black"/>
<path d="M66.9986 33.4634H64.5366V35.9253H66.9986V33.4634Z" fill="black"/>
<path d="M69.3888 33.4634H66.9269V35.9253H69.3888V33.4634Z" fill="black"/>
<path d="M76.5595 33.4634H74.0975V35.9253H76.5595V33.4634Z" fill="black"/>
<path d="M78.9497 33.4634H76.4878V35.9253H78.9497V33.4634Z" fill="black"/>
<path d="M81.34 33.4634H78.8781V35.9253H81.34V33.4634Z" fill="black"/>
<path d="M83.7303 33.4634H81.2683V35.9253H83.7303V33.4634Z" fill="black"/>
<path d="M86.1205 33.4634H83.6586V35.9253H86.1205V33.4634Z" fill="black"/>
<path d="M88.5108 33.4634H86.0488V35.9253H88.5108V33.4634Z" fill="black"/>
<path d="M16.8035 35.8535H14.3416V38.3155H16.8035V35.8535Z" fill="black"/>
<path d="M28.7547 35.8535H26.2927V38.3155H28.7547V35.8535Z" fill="black"/>
<path d="M33.5352 35.8535H31.0732V38.3155H33.5352V35.8535Z" fill="black"/>
<path d="M35.9255 35.8535H33.4635V38.3155H35.9255V35.8535Z" fill="black"/>
<path d="M50.2669 35.8535H47.8049V38.3155H50.2669V35.8535Z" fill="black"/>
<path d="M52.6571 35.8535H50.1952V38.3155H52.6571V35.8535Z" fill="black"/>
<path d="M57.4375 35.8535H54.9756V38.3155H57.4375V35.8535Z" fill="black"/>
<path d="M62.2181 35.8535H59.7561V38.3155H62.2181V35.8535Z" fill="black"/>
<path d="M64.6083 35.8535H62.1464V38.3155H64.6083V35.8535Z" fill="black"/>
<path d="M66.9986 35.8535H64.5366V38.3155H66.9986V35.8535Z" fill="black"/>
<path d="M69.3888 35.8535H66.9269V38.3155H69.3888V35.8535Z" fill="black"/>
<path d="M74.1693 35.8535H71.7074V38.3155H74.1693V35.8535Z" fill="black"/>
<path d="M76.5595 35.8535H74.0975V38.3155H76.5595V35.8535Z" fill="black"/>
<path d="M88.5108 35.8535H86.0488V38.3155H88.5108V35.8535Z" fill="black"/>
<path d="M7.24247 38.2437H4.78052V40.7056H7.24247V38.2437Z" fill="black"/>
<path d="M9.63273 38.2437H7.17078V40.7056H9.63273V38.2437Z" fill="black"/>
<path d="M14.4132 38.2437H11.9513V40.7056H14.4132V38.2437Z" fill="black"/>
<path d="M19.1936 38.2437H16.7317V40.7056H19.1936V38.2437Z" fill="black"/>
<path d="M21.5839 38.2437H19.1219V40.7056H21.5839V38.2437Z" fill="black"/>
<path d="M33.5352 38.2437H31.0732V40.7056H33.5352V38.2437Z" fill="black"/>
<path d="M35.9255 38.2437H33.4635V40.7056H35.9255V38.2437Z" fill="black"/>
<path d="M38.3156 38.2437H35.8536V40.7056H38.3156V38.2437Z" fill="black"/>
<path d="M40.7058 38.2437H38.2439V40.7056H40.7058V38.2437Z" fill="black"/>
<path d="M50.2669 38.2437H47.8049V40.7056H50.2669V38.2437Z" fill="black"/>
<path d="M52.6571 38.2437H50.1952V40.7056H52.6571V38.2437Z" fill="black"/>
<path d="M55.0474 38.2437H52.5854V40.7056H55.0474V38.2437Z" fill="black"/>
<path d="M57.4375 38.2437H54.9756V40.7056H57.4375V38.2437Z" fill="black"/>
<path d="M62.2181 38.2437H59.7561V40.7056H62.2181V38.2437Z" fill="black"/>
<path d="M64.6083 38.2437H62.1464V40.7056H64.6083V38.2437Z" fill="black"/>
<path d="M71.7791 38.2437H69.3171V40.7056H71.7791V38.2437Z" fill="black"/>
<path d="M74.1693 38.2437H71.7074V40.7056H74.1693V38.2437Z" fill="black"/>
<path d="M78.9497 38.2437H76.4878V40.7056H78.9497V38.2437Z" fill="black"/>
<path d="M81.34 38.2437H78.8781V40.7056H81.34V38.2437Z" fill="black"/>
<path d="M90.901 38.2437H88.4391V40.7056H90.901V38.2437Z" fill="black"/>
<path d="M93.2913 38.2437H90.8293V40.7056H93.2913V38.2437Z" fill="black"/>
<path d="M7.24247 40.6338H4.78052V43.0957H7.24247V40.6338Z" fill="black"/>
<path d="M14.4132 40.6338H11.9513V43.0957H14.4132V40.6338Z" fill="black"/>
<path d="M19.1936 40.6338H16.7317V43.0957H19.1936V40.6338Z" fill="black"/>
<path d="M23.9742 40.6338H21.5122V43.0957H23.9742V40.6338Z" fill="black"/>
<path d="M26.3644 40.6338H23.9025V43.0957H26.3644V40.6338Z" fill="black"/>
<path d="M35.9255 40.6338H33.4635V43.0957H35.9255V40.6338Z" fill="black"/>
<path d="M45.4864 40.6338H43.0244V43.0957H45.4864V40.6338Z" fill="black"/>
<path d="M47.8766 40.6338H45.4147V43.0957H47.8766V40.6338Z" fill="black"/>
<path d="M64.6083 40.6338H62.1464V43.0957H64.6083V40.6338Z" fill="black"/>
<path d="M69.3888 40.6338H66.9269V43.0957H69.3888V40.6338Z" fill="black"/>
<path d="M71.7791 40.6338H69.3171V43.0957H71.7791V40.6338Z" fill="black"/>
<path d="M74.1693 40.6338H71.7074V43.0957H74.1693V40.6338Z" fill="black"/>
<path d="M78.9497 40.6338H76.4878V43.0957H78.9497V40.6338Z" fill="black"/>
<path d="M81.34 40.6338H78.8781V43.0957H81.34V40.6338Z" fill="black"/>
<path d="M93.2913 40.6338H90.8293V43.0957H93.2913V40.6338Z" fill="black"/>
<path d="M9.63273 43.0244H7.17078V45.4864H9.63273V43.0244Z" fill="black"/>
<path d="M12.023 43.0244H9.56104V45.4864H12.023V43.0244Z" fill="black"/>
<path d="M14.4132 43.0244H11.9513V45.4864H14.4132V43.0244Z" fill="black"/>
<path d="M16.8035 43.0244H14.3416V45.4864H16.8035V43.0244Z" fill="black"/>
<path d="M19.1936 43.0244H16.7317V45.4864H19.1936V43.0244Z" fill="black"/>
<path d="M21.5839 43.0244H19.1219V45.4864H21.5839V43.0244Z" fill="black"/>
<path d="M23.9742 43.0244H21.5122V45.4864H23.9742V43.0244Z" fill="black"/>
<path d="M31.1449 43.0244H28.683V45.4864H31.1449V43.0244Z" fill="black"/>
<path d="M33.5352 43.0244H31.0732V45.4864H33.5352V43.0244Z" fill="black"/>
<path d="M35.9255 43.0244H33.4635V45.4864H35.9255V43.0244Z" fill="black"/>
<path d="M38.3156 43.0244H35.8536V45.4864H38.3156V43.0244Z" fill="black"/>
<path d="M40.7058 43.0244H38.2439V45.4864H40.7058V43.0244Z" fill="black"/>
<path d="M47.8766 43.0244H45.4147V45.4864H47.8766V43.0244Z" fill="black"/>
<path d="M50.2669 43.0244H47.8049V45.4864H50.2669V43.0244Z" fill="black"/>
<path d="M52.6571 43.0244H50.1952V45.4864H52.6571V43.0244Z" fill="black"/>
<path d="M55.0474 43.0244H52.5854V45.4864H55.0474V43.0244Z" fill="black"/>
<path d="M59.8278 43.0244H57.3658V45.4864H59.8278V43.0244Z" fill="black"/>
<path d="M64.6083 43.0244H62.1464V45.4864H64.6083V43.0244Z" fill="black"/>
<path d="M66.9986 43.0244H64.5366V45.4864H66.9986V43.0244Z" fill="black"/>
<path d="M69.3888 43.0244H66.9269V45.4864H69.3888V43.0244Z" fill="black"/>
<path d="M71.7791 43.0244H69.3171V45.4864H71.7791V43.0244Z" fill="black"/>
<path d="M74.1693 43.0244H71.7074V45.4864H74.1693V43.0244Z" fill="black"/>
<path d="M76.5595 43.0244H74.0975V45.4864H76.5595V43.0244Z" fill="black"/>
<path d="M78.9497 43.0244H76.4878V45.4864H78.9497V43.0244Z" fill="black"/>
<path d="M86.1205 43.0244H83.6586V45.4864H86.1205V43.0244Z" fill="black"/>
<path d="M88.5108 43.0244H86.0488V45.4864H88.5108V43.0244Z" fill="black"/>
<path d="M93.2913 43.0244H90.8293V45.4864H93.2913V43.0244Z" fill="black"/>
<path d="M19.1936 45.4146H16.7317V47.8765H19.1936V45.4146Z" fill="black"/>
<path d="M26.3644 45.4146H23.9025V47.8765H26.3644V45.4146Z" fill="black"/>
<path d="M35.9255 45.4146H33.4635V47.8765H35.9255V45.4146Z" fill="black"/>
<path d="M38.3156 45.4146H35.8536V47.8765H38.3156V45.4146Z" fill="black"/>
<path d="M43.0961 45.4146H40.6342V47.8765H43.0961V45.4146Z" fill="black"/>
<path d="M45.4864 45.4146H43.0244V47.8765H45.4864V45.4146Z" fill="black"/>
<path d="M55.0474 45.4146H52.5854V47.8765H55.0474V45.4146Z" fill="black"/>
<path d="M57.4375 45.4146H54.9756V47.8765H57.4375V45.4146Z" fill="black"/>
<path d="M59.8278 45.4146H57.3658V47.8765H59.8278V45.4146Z" fill="black"/>
<path d="M62.2181 45.4146H59.7561V47.8765H62.2181V45.4146Z" fill="black"/>
<path d="M66.9986 45.4146H64.5366V47.8765H66.9986V45.4146Z" fill="black"/>
<path d="M74.1693 45.4146H71.7074V47.8765H74.1693V45.4146Z" fill="black"/>
<path d="M81.34 45.4146H78.8781V47.8765H81.34V45.4146Z" fill="black"/>
<path d="M88.5108 45.4146H86.0488V47.8765H88.5108V45.4146Z" fill="black"/>
<path d="M9.63273 47.8047H7.17078V50.2666H9.63273V47.8047Z" fill="black"/>
<path d="M14.4132 47.8047H11.9513V50.2666H14.4132V47.8047Z" fill="black"/>
<path d="M16.8035 47.8047H14.3416V50.2666H16.8035V47.8047Z" fill="black"/>
<path d="M19.1936 47.8047H16.7317V50.2666H19.1936V47.8047Z" fill="black"/>
<path d="M21.5839 47.8047H19.1219V50.2666H21.5839V47.8047Z" fill="black"/>
<path d="M31.1449 47.8047H28.683V50.2666H31.1449V47.8047Z" fill="black"/>
<path d="M33.5352 47.8047H31.0732V50.2666H33.5352V47.8047Z" fill="black"/>
<path d="M35.9255 47.8047H33.4635V50.2666H35.9255V47.8047Z" fill="black"/>
<path d="M40.7058 47.8047H38.2439V50.2666H40.7058V47.8047Z" fill="black"/>
<path d="M47.8766 47.8047H45.4147V50.2666H47.8766V47.8047Z" fill="black"/>
<path d="M50.2669 47.8047H47.8049V50.2666H50.2669V47.8047Z" fill="black"/>
<path d="M52.6571 47.8047H50.1952V50.2666H52.6571V47.8047Z" fill="black"/>
<path d="M62.2181 47.8047H59.7561V50.2666H62.2181V47.8047Z" fill="black"/>
<path d="M64.6083 47.8047H62.1464V50.2666H64.6083V47.8047Z" fill="black"/>
<path d="M66.9986 47.8047H64.5366V50.2666H66.9986V47.8047Z" fill="black"/>
<path d="M71.7791 47.8047H69.3171V50.2666H71.7791V47.8047Z" fill="black"/>
<path d="M74.1693 47.8047H71.7074V50.2666H74.1693V47.8047Z" fill="black"/>
<path d="M76.5595 47.8047H74.0975V50.2666H76.5595V47.8047Z" fill="black"/>
<path d="M88.5108 47.8047H86.0488V50.2666H88.5108V47.8047Z" fill="black"/>
<path d="M90.901 47.8047H88.4391V50.2666H90.901V47.8047Z" fill="black"/>
<path d="M93.2913 47.8047H90.8293V50.2666H93.2913V47.8047Z" fill="black"/>
<path d="M7.24247 50.1948H4.78052V52.6568H7.24247V50.1948Z" fill="black"/>
<path d="M16.8035 50.1948H14.3416V52.6568H16.8035V50.1948Z" fill="black"/>
<path d="M19.1936 50.1948H16.7317V52.6568H19.1936V50.1948Z" fill="black"/>
<path d="M26.3644 50.1948H23.9025V52.6568H26.3644V50.1948Z" fill="black"/>
<path d="M31.1449 50.1948H28.683V52.6568H31.1449V50.1948Z" fill="black"/>
<path d="M35.9255 50.1948H33.4635V52.6568H35.9255V50.1948Z" fill="black"/>
<path d="M52.6571 50.1948H50.1952V52.6568H52.6571V50.1948Z" fill="black"/>
<path d="M57.4375 50.1948H54.9756V52.6568H57.4375V50.1948Z" fill="black"/>
<path d="M64.6083 50.1948H62.1464V52.6568H64.6083V50.1948Z" fill="black"/>
<path d="M71.7791 50.1948H69.3171V52.6568H71.7791V50.1948Z" fill="black"/>
<path d="M74.1693 50.1948H71.7074V52.6568H74.1693V50.1948Z" fill="black"/>
<path d="M76.5595 50.1948H74.0975V52.6568H76.5595V50.1948Z" fill="black"/>
<path d="M81.34 50.1948H78.8781V52.6568H81.34V50.1948Z" fill="black"/>
<path d="M93.2913 50.1948H90.8293V52.6568H93.2913V50.1948Z" fill="black"/>
<path d="M7.24247 52.585H4.78052V55.0469H7.24247V52.585Z" fill="black"/>
<path d="M14.4132 52.585H11.9513V55.0469H14.4132V52.585Z" fill="black"/>
<path d="M16.8035 52.585H14.3416V55.0469H16.8035V52.585Z" fill="black"/>
<path d="M21.5839 52.585H19.1219V55.0469H21.5839V52.585Z" fill="black"/>
<path d="M26.3644 52.585H23.9025V55.0469H26.3644V52.585Z" fill="black"/>
<path d="M28.7547 52.585H26.2927V55.0469H28.7547V52.585Z" fill="black"/>
<path d="M33.5352 52.585H31.0732V55.0469H33.5352V52.585Z" fill="black"/>
<path d="M40.7058 52.585H38.2439V55.0469H40.7058V52.585Z" fill="black"/>
<path d="M43.0961 52.585H40.6342V55.0469H43.0961V52.585Z" fill="black"/>
<path d="M47.8766 52.585H45.4147V55.0469H47.8766V52.585Z" fill="black"/>
<path d="M52.6571 52.585H50.1952V55.0469H52.6571V52.585Z" fill="black"/>
<path d="M62.2181 52.585H59.7561V55.0469H62.2181V52.585Z" fill="black"/>
<path d="M64.6083 52.585H62.1464V55.0469H64.6083V52.585Z" fill="black"/>
<path d="M66.9986 52.585H64.5366V55.0469H66.9986V52.585Z" fill="black"/>
<path d="M69.3888 52.585H66.9269V55.0469H69.3888V52.585Z" fill="black"/>
<path d="M71.7791 52.585H69.3171V55.0469H71.7791V52.585Z" fill="black"/>
<path d="M74.1693 52.585H71.7074V55.0469H74.1693V52.585Z" fill="black"/>
<path d="M76.5595 52.585H74.0975V55.0469H76.5595V52.585Z" fill="black"/>
<path d="M78.9497 52.585H76.4878V55.0469H78.9497V52.585Z" fill="black"/>
<path d="M83.7303 52.585H81.2683V55.0469H83.7303V52.585Z" fill="black"/>
<path d="M88.5108 52.585H86.0488V55.0469H88.5108V52.585Z" fill="black"/>
<path d="M7.24247 54.9756H4.78052V57.4375H7.24247V54.9756Z" fill="black"/>
<path d="M16.8035 54.9756H14.3416V57.4375H16.8035V54.9756Z" fill="black"/>
<path d="M19.1936 54.9756H16.7317V57.4375H19.1936V54.9756Z" fill="black"/>
<path d="M33.5352 54.9756H31.0732V57.4375H33.5352V54.9756Z" fill="black"/>
<path d="M35.9255 54.9756H33.4635V57.4375H35.9255V54.9756Z" fill="black"/>
<path d="M43.0961 54.9756H40.6342V57.4375H43.0961V54.9756Z" fill="black"/>
<path d="M45.4864 54.9756H43.0244V57.4375H45.4864V54.9756Z" fill="black"/>
<path d="M50.2669 54.9756H47.8049V57.4375H50.2669V54.9756Z" fill="black"/>
<path d="M62.2181 54.9756H59.7561V57.4375H62.2181V54.9756Z" fill="black"/>
<path d="M64.6083 54.9756H62.1464V57.4375H64.6083V54.9756Z" fill="black"/>
<path d="M76.5595 54.9756H74.0975V57.4375H76.5595V54.9756Z" fill="black"/>
<path d="M81.34 54.9756H78.8781V57.4375H81.34V54.9756Z" fill="black"/>
<path d="M88.5108 54.9756H86.0488V57.4375H88.5108V54.9756Z" fill="black"/>
<path d="M90.901 54.9756H88.4391V57.4375H90.901V54.9756Z" fill="black"/>
<path d="M7.24247 57.3657H4.78052V59.8277H7.24247V57.3657Z" fill="black"/>
<path d="M9.63273 57.3657H7.17078V59.8277H9.63273V57.3657Z" fill="black"/>
<path d="M12.023 57.3657H9.56104V59.8277H12.023V57.3657Z" fill="black"/>
<path d="M19.1936 57.3657H16.7317V59.8277H19.1936V57.3657Z" fill="black"/>
<path d="M21.5839 57.3657H19.1219V59.8277H21.5839V57.3657Z" fill="black"/>
<path d="M23.9742 57.3657H21.5122V59.8277H23.9742V57.3657Z" fill="black"/>
<path d="M28.7547 57.3657H26.2927V59.8277H28.7547V57.3657Z" fill="black"/>
<path d="M33.5352 57.3657H31.0732V59.8277H33.5352V57.3657Z" fill="black"/>
<path d="M35.9255 57.3657H33.4635V59.8277H35.9255V57.3657Z" fill="black"/>
<path d="M47.8766 57.3657H45.4147V59.8277H47.8766V57.3657Z" fill="black"/>
<path d="M50.2669 57.3657H47.8049V59.8277H50.2669V57.3657Z" fill="black"/>
<path d="M59.8278 57.3657H57.3658V59.8277H59.8278V57.3657Z" fill="black"/>
<path d="M62.2181 57.3657H59.7561V59.8277H62.2181V57.3657Z" fill="black"/>
<path d="M71.7791 57.3657H69.3171V59.8277H71.7791V57.3657Z" fill="black"/>
<path d="M74.1693 57.3657H71.7074V59.8277H74.1693V57.3657Z" fill="black"/>
<path d="M76.5595 57.3657H74.0975V59.8277H76.5595V57.3657Z" fill="black"/>
<path d="M78.9497 57.3657H76.4878V59.8277H78.9497V57.3657Z" fill="black"/>
<path d="M81.34 57.3657H78.8781V59.8277H81.34V57.3657Z" fill="black"/>
<path d="M86.1205 57.3657H83.6586V59.8277H86.1205V57.3657Z" fill="black"/>
<path d="M88.5108 57.3657H86.0488V59.8277H88.5108V57.3657Z" fill="black"/>
<path d="M93.2913 57.3657H90.8293V59.8277H93.2913V57.3657Z" fill="black"/>
<path d="M7.24247 59.7559H4.78052V62.2178H7.24247V59.7559Z" fill="black"/>
<path d="M12.023 59.7559H9.56104V62.2178H12.023V59.7559Z" fill="black"/>
<path d="M14.4132 59.7559H11.9513V62.2178H14.4132V59.7559Z" fill="black"/>
<path d="M16.8035 59.7559H14.3416V62.2178H16.8035V59.7559Z" fill="black"/>
<path d="M23.9742 59.7559H21.5122V62.2178H23.9742V59.7559Z" fill="black"/>
<path d="M28.7547 59.7559H26.2927V62.2178H28.7547V59.7559Z" fill="black"/>
<path d="M35.9255 59.7559H33.4635V62.2178H35.9255V59.7559Z" fill="black"/>
<path d="M38.3156 59.7559H35.8536V62.2178H38.3156V59.7559Z" fill="black"/>
<path d="M45.4864 59.7559H43.0244V62.2178H45.4864V59.7559Z" fill="black"/>
<path d="M47.8766 59.7559H45.4147V62.2178H47.8766V59.7559Z" fill="black"/>
<path d="M52.6571 59.7559H50.1952V62.2178H52.6571V59.7559Z" fill="black"/>
<path d="M64.6083 59.7559H62.1464V62.2178H64.6083V59.7559Z" fill="black"/>
<path d="M69.3888 59.7559H66.9269V62.2178H69.3888V59.7559Z" fill="black"/>
<path d="M74.1693 59.7559H71.7074V62.2178H74.1693V59.7559Z" fill="black"/>
<path d="M78.9497 59.7559H76.4878V62.2178H78.9497V59.7559Z" fill="black"/>
<path d="M83.7303 59.7559H81.2683V62.2178H83.7303V59.7559Z" fill="black"/>
<path d="M93.2913 59.7559H90.8293V62.2178H93.2913V59.7559Z" fill="black"/>
<path d="M7.24247 62.146H4.78052V64.6079H7.24247V62.146Z" fill="black"/>
<path d="M9.63273 62.146H7.17078V64.6079H9.63273V62.146Z" fill="black"/>
<path d="M14.4132 62.146H11.9513V64.6079H14.4132V62.146Z" fill="black"/>
<path d="M16.8035 62.146H14.3416V64.6079H16.8035V62.146Z" fill="black"/>
<path d="M21.5839 62.146H19.1219V64.6079H21.5839V62.146Z" fill="black"/>
<path d="M26.3644 62.146H23.9025V64.6079H26.3644V62.146Z" fill="black"/>
<path d="M31.1449 62.146H28.683V64.6079H31.1449V62.146Z" fill="black"/>
<path d="M33.5352 62.146H31.0732V64.6079H33.5352V62.146Z" fill="black"/>
<path d="M35.9255 62.146H33.4635V64.6079H35.9255V62.146Z" fill="black"/>
<path d="M40.7058 62.146H38.2439V64.6079H40.7058V62.146Z" fill="black"/>
<path d="M50.2669 62.146H47.8049V64.6079H50.2669V62.146Z" fill="black"/>
<path d="M55.0474 62.146H52.5854V64.6079H55.0474V62.146Z" fill="black"/>
<path d="M57.4375 62.146H54.9756V64.6079H57.4375V62.146Z" fill="black"/>
<path d="M59.8278 62.146H57.3658V64.6079H59.8278V62.146Z" fill="black"/>
<path d="M62.2181 62.146H59.7561V64.6079H62.2181V62.146Z" fill="black"/>
<path d="M74.1693 62.146H71.7074V64.6079H74.1693V62.146Z" fill="black"/>
<path d="M76.5595 62.146H74.0975V64.6079H76.5595V62.146Z" fill="black"/>
<path d="M78.9497 62.146H76.4878V64.6079H78.9497V62.146Z" fill="black"/>
<path d="M83.7303 62.146H81.2683V64.6079H83.7303V62.146Z" fill="black"/>
<path d="M88.5108 62.146H86.0488V64.6079H88.5108V62.146Z" fill="black"/>
<path d="M90.901 62.146H88.4391V64.6079H90.901V62.146Z" fill="black"/>
<path d="M93.2913 62.146H90.8293V64.6079H93.2913V62.146Z" fill="black"/>
<path d="M7.24247 64.5361H4.78052V66.9981H7.24247V64.5361Z" fill="black"/>
<path d="M14.4132 64.5361H11.9513V66.9981H14.4132V64.5361Z" fill="black"/>
<path d="M19.1936 64.5361H16.7317V66.9981H19.1936V64.5361Z" fill="black"/>
<path d="M23.9742 64.5361H21.5122V66.9981H23.9742V64.5361Z" fill="black"/>
<path d="M28.7547 64.5361H26.2927V66.9981H28.7547V64.5361Z" fill="black"/>
<path d="M31.1449 64.5361H28.683V66.9981H31.1449V64.5361Z" fill="black"/>
<path d="M40.7058 64.5361H38.2439V66.9981H40.7058V64.5361Z" fill="black"/>
<path d="M52.6571 64.5361H50.1952V66.9981H52.6571V64.5361Z" fill="black"/>
<path d="M57.4375 64.5361H54.9756V66.9981H57.4375V64.5361Z" fill="black"/>
<path d="M59.8278 64.5361H57.3658V66.9981H59.8278V64.5361Z" fill="black"/>
<path d="M64.6083 64.5361H62.1464V66.9981H64.6083V64.5361Z" fill="black"/>
<path d="M69.3888 64.5361H66.9269V66.9981H69.3888V64.5361Z" fill="black"/>
<path d="M76.5595 64.5361H74.0975V66.9981H76.5595V64.5361Z" fill="black"/>
<path d="M81.34 64.5361H78.8781V66.9981H81.34V64.5361Z" fill="black"/>
<path d="M90.901 64.5361H88.4391V66.9981H90.901V64.5361Z" fill="black"/>
<path d="M7.24247 66.9268H4.78052V69.3887H7.24247V66.9268Z" fill="black"/>
<path d="M12.023 66.9268H9.56104V69.3887H12.023V66.9268Z" fill="black"/>
<path d="M21.5839 66.9268H19.1219V69.3887H21.5839V66.9268Z" fill="black"/>
<path d="M28.7547 66.9268H26.2927V69.3887H28.7547V66.9268Z" fill="black"/>
<path d="M31.1449 66.9268H28.683V69.3887H31.1449V66.9268Z" fill="black"/>
<path d="M35.9255 66.9268H33.4635V69.3887H35.9255V66.9268Z" fill="black"/>
<path d="M40.7058 66.9268H38.2439V69.3887H40.7058V66.9268Z" fill="black"/>
<path d="M45.4864 66.9268H43.0244V69.3887H45.4864V66.9268Z" fill="black"/>
<path d="M47.8766 66.9268H45.4147V69.3887H47.8766V66.9268Z" fill="black"/>
<path d="M52.6571 66.9268H50.1952V69.3887H52.6571V66.9268Z" fill="black"/>
<path d="M55.0474 66.9268H52.5854V69.3887H55.0474V66.9268Z" fill="black"/>
<path d="M59.8278 66.9268H57.3658V69.3887H59.8278V66.9268Z" fill="black"/>
<path d="M69.3888 66.9268H66.9269V69.3887H69.3888V66.9268Z" fill="black"/>
<path d="M71.7791 66.9268H69.3171V69.3887H71.7791V66.9268Z" fill="black"/>
<path d="M74.1693 66.9268H71.7074V69.3887H74.1693V66.9268Z" fill="black"/>
<path d="M76.5595 66.9268H74.0975V69.3887H76.5595V66.9268Z" fill="black"/>
<path d="M78.9497 66.9268H76.4878V69.3887H78.9497V66.9268Z" fill="black"/>
<path d="M83.7303 66.9268H81.2683V69.3887H83.7303V66.9268Z" fill="black"/>
<path d="M86.1205 66.9268H83.6586V69.3887H86.1205V66.9268Z" fill="black"/>
<path d="M88.5108 66.9268H86.0488V69.3887H88.5108V66.9268Z" fill="black"/>
<path d="M90.901 66.9268H88.4391V69.3887H90.901V66.9268Z" fill="black"/>
<path d="M93.2913 66.9268H90.8293V69.3887H93.2913V66.9268Z" fill="black"/>
<path d="M7.24247 69.3169H4.78052V71.7788H7.24247V69.3169Z" fill="black"/>
<path d="M12.023 69.3169H9.56104V71.7788H12.023V69.3169Z" fill="black"/>
<path d="M14.4132 69.3169H11.9513V71.7788H14.4132V69.3169Z" fill="black"/>
<path d="M35.9255 69.3169H33.4635V71.7788H35.9255V69.3169Z" fill="black"/>
<path d="M38.3156 69.3169H35.8536V71.7788H38.3156V69.3169Z" fill="black"/>
<path d="M40.7058 69.3169H38.2439V71.7788H40.7058V69.3169Z" fill="black"/>
<path d="M47.8766 69.3169H45.4147V71.7788H47.8766V69.3169Z" fill="black"/>
<path d="M50.2669 69.3169H47.8049V71.7788H50.2669V69.3169Z" fill="black"/>
<path d="M52.6571 69.3169H50.1952V71.7788H52.6571V69.3169Z" fill="black"/>
<path d="M64.6083 69.3169H62.1464V71.7788H64.6083V69.3169Z" fill="black"/>
<path d="M69.3888 69.3169H66.9269V71.7788H69.3888V69.3169Z" fill="black"/>
<path d="M71.7791 69.3169H69.3171V71.7788H71.7791V69.3169Z" fill="black"/>
<path d="M78.9497 69.3169H76.4878V71.7788H78.9497V69.3169Z" fill="black"/>
<path d="M90.901 69.3169H88.4391V71.7788H90.901V69.3169Z" fill="black"/>
<path d="M93.2913 69.3169H90.8293V71.7788H93.2913V69.3169Z" fill="black"/>
<path d="M7.24247 71.707H4.78052V74.169H7.24247V71.707Z" fill="black"/>
<path d="M12.023 71.707H9.56104V74.169H12.023V71.707Z" fill="black"/>
<path d="M14.4132 71.707H11.9513V74.169H14.4132V71.707Z" fill="black"/>
<path d="M21.5839 71.707H19.1219V74.169H21.5839V71.707Z" fill="black"/>
<path d="M23.9742 71.707H21.5122V74.169H23.9742V71.707Z" fill="black"/>
<path d="M28.7547 71.707H26.2927V74.169H28.7547V71.707Z" fill="black"/>
<path d="M33.5352 71.707H31.0732V74.169H33.5352V71.707Z" fill="black"/>
<path d="M45.4864 71.707H43.0244V74.169H45.4864V71.707Z" fill="black"/>
<path d="M50.2669 71.707H47.8049V74.169H50.2669V71.707Z" fill="black"/>
<path d="M52.6571 71.707H50.1952V74.169H52.6571V71.707Z" fill="black"/>
<path d="M55.0474 71.707H52.5854V74.169H55.0474V71.707Z" fill="black"/>
<path d="M59.8278 71.707H57.3658V74.169H59.8278V71.707Z" fill="black"/>
<path d="M66.9986 71.707H64.5366V74.169H66.9986V71.707Z" fill="black"/>
<path d="M69.3888 71.707H66.9269V74.169H69.3888V71.707Z" fill="black"/>
<path d="M74.1693 71.707H71.7074V74.169H74.1693V71.707Z" fill="black"/>
<path d="M76.5595 71.707H74.0975V74.169H76.5595V71.707Z" fill="black"/>
<path d="M78.9497 71.707H76.4878V74.169H78.9497V71.707Z" fill="black"/>
<path d="M81.34 71.707H78.8781V74.169H81.34V71.707Z" fill="black"/>
<path d="M83.7303 71.707H81.2683V74.169H83.7303V71.707Z" fill="black"/>
<path d="M86.1205 71.707H83.6586V74.169H86.1205V71.707Z" fill="black"/>
<path d="M88.5108 71.707H86.0488V74.169H88.5108V71.707Z" fill="black"/>
<path d="M90.901 71.707H88.4391V74.169H90.901V71.707Z" fill="black"/>
<path d="M93.2913 71.707H90.8293V74.169H93.2913V71.707Z" fill="black"/>
<path d="M26.3644 74.0972H23.9025V76.5591H26.3644V74.0972Z" fill="black"/>
<path d="M28.7547 74.0972H26.2927V76.5591H28.7547V74.0972Z" fill="black"/>
<path d="M31.1449 74.0972H28.683V76.5591H31.1449V74.0972Z" fill="black"/>
<path d="M43.0961 74.0972H40.6342V76.5591H43.0961V74.0972Z" fill="black"/>
<path d="M45.4864 74.0972H43.0244V76.5591H45.4864V74.0972Z" fill="black"/>
<path d="M47.8766 74.0972H45.4147V76.5591H47.8766V74.0972Z" fill="black"/>
<path d="M52.6571 74.0972H50.1952V76.5591H52.6571V74.0972Z" fill="black"/>
<path d="M55.0474 74.0972H52.5854V76.5591H55.0474V74.0972Z" fill="black"/>
<path d="M57.4375 74.0972H54.9756V76.5591H57.4375V74.0972Z" fill="black"/>
<path d="M62.2181 74.0972H59.7561V76.5591H62.2181V74.0972Z" fill="black"/>
<path d="M66.9986 74.0972H64.5366V76.5591H66.9986V74.0972Z" fill="black"/>
<path d="M69.3888 74.0972H66.9269V76.5591H69.3888V74.0972Z" fill="black"/>
<path d="M74.1693 74.0972H71.7074V76.5591H74.1693V74.0972Z" fill="black"/>
<path d="M83.7303 74.0972H81.2683V76.5591H83.7303V74.0972Z" fill="black"/>
<path d="M86.1205 74.0972H83.6586V76.5591H86.1205V74.0972Z" fill="black"/>
<path d="M90.901 74.0972H88.4391V76.5591H90.901V74.0972Z" fill="black"/>
<path d="M28.7547 76.4878H26.2927V78.9497H28.7547V76.4878Z" fill="black"/>
<path d="M31.1449 76.4878H28.683V78.9497H31.1449V76.4878Z" fill="black"/>
<path d="M38.3156 76.4878H35.8536V78.9497H38.3156V76.4878Z" fill="black"/>
<path d="M45.4864 76.4878H43.0244V78.9497H45.4864V76.4878Z" fill="black"/>
<path d="M50.2669 76.4878H47.8049V78.9497H50.2669V76.4878Z" fill="black"/>
<path d="M55.0474 76.4878H52.5854V78.9497H55.0474V76.4878Z" fill="black"/>
<path d="M59.8278 76.4878H57.3658V78.9497H59.8278V76.4878Z" fill="black"/>
<path d="M66.9986 76.4878H64.5366V78.9497H66.9986V76.4878Z" fill="black"/>
<path d="M69.3888 76.4878H66.9269V78.9497H69.3888V76.4878Z" fill="black"/>
<path d="M74.1693 76.4878H71.7074V78.9497H74.1693V76.4878Z" fill="black"/>
<path d="M78.9497 76.4878H76.4878V78.9497H78.9497V76.4878Z" fill="black"/>
<path d="M83.7303 76.4878H81.2683V78.9497H83.7303V76.4878Z" fill="black"/>
<path d="M90.901 76.4878H88.4391V78.9497H90.901V76.4878Z" fill="black"/>
<path d="M93.2913 76.4878H90.8293V78.9497H93.2913V76.4878Z" fill="black"/>
<path d="M31.1449 78.8779H28.683V81.3399H31.1449V78.8779Z" fill="black"/>
<path d="M35.9255 78.8779H33.4635V81.3399H35.9255V78.8779Z" fill="black"/>
<path d="M40.7058 78.8779H38.2439V81.3399H40.7058V78.8779Z" fill="black"/>
<path d="M43.0961 78.8779H40.6342V81.3399H43.0961V78.8779Z" fill="black"/>
<path d="M45.4864 78.8779H43.0244V81.3399H45.4864V78.8779Z" fill="black"/>
<path d="M47.8766 78.8779H45.4147V81.3399H47.8766V78.8779Z" fill="black"/>
<path d="M52.6571 78.8779H50.1952V81.3399H52.6571V78.8779Z" fill="black"/>
<path d="M55.0474 78.8779H52.5854V81.3399H55.0474V78.8779Z" fill="black"/>
<path d="M57.4375 78.8779H54.9756V81.3399H57.4375V78.8779Z" fill="black"/>
<path d="M59.8278 78.8779H57.3658V81.3399H59.8278V78.8779Z" fill="black"/>
<path d="M62.2181 78.8779H59.7561V81.3399H62.2181V78.8779Z" fill="black"/>
<path d="M64.6083 78.8779H62.1464V81.3399H64.6083V78.8779Z" fill="black"/>
<path d="M74.1693 78.8779H71.7074V81.3399H74.1693V78.8779Z" fill="black"/>
<path d="M83.7303 78.8779H81.2683V81.3399H83.7303V78.8779Z" fill="black"/>
<path d="M93.2913 78.8779H90.8293V81.3399H93.2913V78.8779Z" fill="black"/>
<path d="M26.3644 81.2681H23.9025V83.73H26.3644V81.2681Z" fill="black"/>
<path d="M35.9255 81.2681H33.4635V83.73H35.9255V81.2681Z" fill="black"/>
<path d="M45.4864 81.2681H43.0244V83.73H45.4864V81.2681Z" fill="black"/>
<path d="M47.8766 81.2681H45.4147V83.73H47.8766V81.2681Z" fill="black"/>
<path d="M57.4375 81.2681H54.9756V83.73H57.4375V81.2681Z" fill="black"/>
<path d="M64.6083 81.2681H62.1464V83.73H64.6083V81.2681Z" fill="black"/>
<path d="M66.9986 81.2681H64.5366V83.73H66.9986V81.2681Z" fill="black"/>
<path d="M69.3888 81.2681H66.9269V83.73H69.3888V81.2681Z" fill="black"/>
<path d="M71.7791 81.2681H69.3171V83.73H71.7791V81.2681Z" fill="black"/>
<path d="M74.1693 81.2681H71.7074V83.73H74.1693V81.2681Z" fill="black"/>
<path d="M76.5595 81.2681H74.0975V83.73H76.5595V81.2681Z" fill="black"/>
<path d="M78.9497 81.2681H76.4878V83.73H78.9497V81.2681Z" fill="black"/>
<path d="M81.34 81.2681H78.8781V83.73H81.34V81.2681Z" fill="black"/>
<path d="M83.7303 81.2681H81.2683V83.73H83.7303V81.2681Z" fill="black"/>
<path d="M86.1205 81.2681H83.6586V83.73H86.1205V81.2681Z" fill="black"/>
<path d="M88.5108 81.2681H86.0488V83.73H88.5108V81.2681Z" fill="black"/>
<path d="M93.2913 81.2681H90.8293V83.73H93.2913V81.2681Z" fill="black"/>
<path d="M26.3644 83.6582H23.9025V86.1202H26.3644V83.6582Z" fill="black"/>
<path d="M28.7547 83.6582H26.2927V86.1202H28.7547V83.6582Z" fill="black"/>
<path d="M35.9255 83.6582H33.4635V86.1202H35.9255V83.6582Z" fill="black"/>
<path d="M38.3156 83.6582H35.8536V86.1202H38.3156V83.6582Z" fill="black"/>
<path d="M43.0961 83.6582H40.6342V86.1202H43.0961V83.6582Z" fill="black"/>
<path d="M52.6571 83.6582H50.1952V86.1202H52.6571V83.6582Z" fill="black"/>
<path d="M57.4375 83.6582H54.9756V86.1202H57.4375V83.6582Z" fill="black"/>
<path d="M59.8278 83.6582H57.3658V86.1202H59.8278V83.6582Z" fill="black"/>
<path d="M74.1693 83.6582H71.7074V86.1202H74.1693V83.6582Z" fill="black"/>
<path d="M76.5595 83.6582H74.0975V86.1202H76.5595V83.6582Z" fill="black"/>
<path d="M78.9497 83.6582H76.4878V86.1202H78.9497V83.6582Z" fill="black"/>
<path d="M81.34 83.6582H78.8781V86.1202H81.34V83.6582Z" fill="black"/>
<path d="M83.7303 83.6582H81.2683V86.1202H83.7303V83.6582Z" fill="black"/>
<path d="M86.1205 83.6582H83.6586V86.1202H86.1205V83.6582Z" fill="black"/>
<path d="M26.3644 86.0483H23.9025V88.5103H26.3644V86.0483Z" fill="black"/>
<path d="M28.7547 86.0483H26.2927V88.5103H28.7547V86.0483Z" fill="black"/>
<path d="M33.5352 86.0483H31.0732V88.5103H33.5352V86.0483Z" fill="black"/>
<path d="M38.3156 86.0483H35.8536V88.5103H38.3156V86.0483Z" fill="black"/>
<path d="M43.0961 86.0483H40.6342V88.5103H43.0961V86.0483Z" fill="black"/>
<path d="M45.4864 86.0483H43.0244V88.5103H45.4864V86.0483Z" fill="black"/>
<path d="M57.4375 86.0483H54.9756V88.5103H57.4375V86.0483Z" fill="black"/>
<path d="M59.8278 86.0483H57.3658V88.5103H59.8278V86.0483Z" fill="black"/>
<path d="M62.2181 86.0483H59.7561V88.5103H62.2181V86.0483Z" fill="black"/>
<path d="M64.6083 86.0483H62.1464V88.5103H64.6083V86.0483Z" fill="black"/>
<path d="M69.3888 86.0483H66.9269V88.5103H69.3888V86.0483Z" fill="black"/>
<path d="M71.7791 86.0483H69.3171V88.5103H71.7791V86.0483Z" fill="black"/>
<path d="M81.34 86.0483H78.8781V88.5103H81.34V86.0483Z" fill="black"/>
<path d="M86.1205 86.0483H83.6586V88.5103H86.1205V86.0483Z" fill="black"/>
<path d="M88.5108 86.0483H86.0488V88.5103H88.5108V86.0483Z" fill="black"/>
<path d="M93.2913 86.0483H90.8293V88.5103H93.2913V86.0483Z" fill="black"/>
<path d="M47.8766 88.439H45.4147V90.9009H47.8766V88.439Z" fill="black"/>
<path d="M62.2181 88.439H59.7561V90.9009H62.2181V88.439Z" fill="black"/>
<path d="M69.3888 88.439H66.9269V90.9009H69.3888V88.439Z" fill="black"/>
<path d="M71.7791 88.439H69.3171V90.9009H71.7791V88.439Z" fill="black"/>
<path d="M74.1693 88.439H71.7074V90.9009H74.1693V88.439Z" fill="black"/>
<path d="M76.5595 88.439H74.0975V90.9009H76.5595V88.439Z" fill="black"/>
<path d="M83.7303 88.439H81.2683V90.9009H83.7303V88.439Z" fill="black"/>
<path d="M93.2913 88.439H90.8293V90.9009H93.2913V88.439Z" fill="black"/>
<path d="M31.1449 90.8291H28.683V93.2911H31.1449V90.8291Z" fill="black"/>
<path d="M33.5352 90.8291H31.0732V93.2911H33.5352V90.8291Z" fill="black"/>
<path d="M35.9255 90.8291H33.4635V93.2911H35.9255V90.8291Z" fill="black"/>
<path d="M43.0961 90.8291H40.6342V93.2911H43.0961V90.8291Z" fill="black"/>
<path d="M52.6571 90.8291H50.1952V93.2911H52.6571V90.8291Z" fill="black"/>
<path d="M55.0474 90.8291H52.5854V93.2911H55.0474V90.8291Z" fill="black"/>
<path d="M57.4375 90.8291H54.9756V93.2911H57.4375V90.8291Z" fill="black"/>
<path d="M59.8278 90.8291H57.3658V93.2911H59.8278V90.8291Z" fill="black"/>
<path d="M62.2181 90.8291H59.7561V93.2911H62.2181V90.8291Z" fill="black"/>
<path d="M64.6083 90.8291H62.1464V93.2911H64.6083V90.8291Z" fill="black"/>
<path d="M66.9986 90.8291H64.5366V93.2911H66.9986V90.8291Z" fill="black"/>
<path d="M69.3888 90.8291H66.9269V93.2911H69.3888V90.8291Z" fill="black"/>
<path d="M88.5108 90.8291H86.0488V93.2911H88.5108V90.8291Z" fill="black"/>
<path d="M90.901 90.8291H88.4391V93.2911H90.901V90.8291Z" fill="black"/>
<path d="M93.2913 90.8291H90.8293V93.2911H93.2913V90.8291Z" fill="black"/>
<path d="M4.78052 4.78027V21.512H21.5122V4.78027H4.78052ZM19.122 19.1217H7.17076V7.17052H19.122V19.1217Z" fill="black"/>
<path d="M76.4878 4.78027V21.512H93.2195V4.78027H76.4878ZM90.8293 19.1217H78.878V7.17052H90.8293V19.1217Z" fill="black"/>
<path d="M4.78052 76.4878V93.2195H21.5122V76.4878H4.78052ZM19.122 90.8293H7.17076V78.878H19.122V90.8293Z" fill="black"/>
<path d="M16.7318 9.56055H9.56104V16.7313H16.7318V9.56055Z" fill="black"/>
<path d="M88.439 9.56055H81.2683V16.7313H88.439V9.56055Z" fill="black"/>
<path d="M16.7318 81.2681H9.56104V88.4388H16.7318V81.2681Z" fill="black"/>
</g>
<defs>
<clipPath id="clip0_23_4089">
<rect width="98" height="98" fill="white"/>
</clipPath>
</defs>
</svg>
